<?xml version="1.0" encoding="utf-8"?>
<!-- Generator: Adobe Illustrator 22.0.0, SVG Export Plug-In . SVG Version: 6.00 Build 0)  -->
<svg version="1.1" id="Layer_1" xmlns="http://www.w3.org/2000/svg" xmlns:xlink="http://www.w3.org/1999/xlink" x="0px" y="0px"
	 viewBox="0 0 1080 1080" style="enable-background:new 0 0 1080 1080;" xml:space="preserve">
<style type="text/css">
	.st0{clip-path:url(#SVGID_2_);}
	.st1{clip-path:url(#SVGID_4_);fill:#571208;}
	.st2{clip-path:url(#SVGID_6_);fill:url(#SVGID_7_);}
	.st3{clip-path:url(#SVGID_9_);fill:url(#SVGID_10_);}
	.st4{clip-path:url(#SVGID_12_);fill:url(#SVGID_13_);}
	.st5{clip-path:url(#SVGID_15_);fill:url(#SVGID_16_);}
	.st6{clip-path:url(#SVGID_18_);fill:#571208;}
	.st7{opacity:0.54;clip-path:url(#SVGID_18_);}
	.st8{clip-path:url(#SVGID_20_);fill:#FFFFFF;}
	.st9{opacity:0.11;clip-path:url(#SVGID_18_);}
	.st10{clip-path:url(#SVGID_22_);}
	.st11{clip-path:url(#SVGID_24_);fill:url(#SVGID_25_);}
	.st12{opacity:0.11;clip-path:url(#SVGID_27_);}
	.st13{clip-path:url(#SVGID_29_);}
	.st14{clip-path:url(#SVGID_31_);}
	.st15{clip-path:url(#SVGID_33_);}
	.st16{opacity:0.54;clip-path:url(#SVGID_27_);}
	.st17{clip-path:url(#SVGID_35_);fill:#FFFFFF;}
	.st18{clip-path:url(#SVGID_37_);fill:#FFFFFF;}
</style>
<g>
	<defs>
		<rect id="SVGID_1_" width="1080" height="1080"/>
	</defs>
	<clipPath id="SVGID_2_">
		<use xlink:href="#SVGID_1_"  style="overflow:visible;"/>
	</clipPath>
	<g class="st0">
		<defs>
			<rect id="SVGID_3_" width="1080" height="1080"/>
		</defs>
		<clipPath id="SVGID_4_">
			<use xlink:href="#SVGID_3_"  style="overflow:visible;"/>
		</clipPath>
		<path class="st1" d="M221,866.8c-4.7,0.4-9.5-0.3-13.9-2.2l-7.8-3.4c-1.7-0.7-3.4-1.6-5.1-2.6c-1.4-0.8-2.9-1.7-4.7-2.9
			c-3-2-5.9-4.2-8.7-6.5c-5.2-4.4-10.3-9.5-15-15.2c-4.4-5.3-8.4-11.2-12.1-17.5c-1.6-2.9-3.3-5.9-4.9-9.4c-1.6-3.2-3.1-6.4-4.4-9.7
			c-5.5-13-9.7-26.8-12.4-40.9c-1.3-6.8-2.2-14-2.9-21.3c-0.6-6.8-1-13.9-1.1-21.5c-0.1-14.2,0.7-28.7,2.5-43
			c0.5-3.8,1-7.4,1.5-10.8c0.7-4.4,1.3-7.7,1.9-10.8c0.8-3.7,1.6-7.4,2.4-10.8c0.8-3.3,1.7-6.8,3-10.9c2.3-7.8,4.9-14.9,8.1-21.9
			c3.9-8.5,7.8-15.5,12.4-21.9c3-4.2,5.8-7.6,8.7-10.7c3.4-3.6,7.1-7,11-10c4.2-3.3,8.9-6.2,14-8.7c2.7-1.3,5.4-2.4,8.2-3.4
			c0.5-0.2,1.1-0.4,1.7-0.6l2.8-0.8c0.9-0.2,1.7-0.5,2.6-0.7c9-2.2,17.8-3.4,26-3.5c9.3-0.2,18.3,0.8,26.7,2.9
			c8.3,2,16.6,5.1,24.5,9.2c7,3.6,13.8,8.1,20.7,13.7c5.6,4.6,11.1,9.9,16.8,16.3c4.8,5.4,9.3,11.3,13.5,17.6c2,3,3.9,6.1,5.7,9.2
			c0.9,1.6,1.8,3.1,2.6,4.7c0.3,0.5,0.6,1.1,0.9,1.6c0.5,1,1.1,2,1.6,2.9c0.5,0.9,1.1,1.8,1.7,2.7c0.4,0.6,0.7,1.1,1.1,1.7l0.7,1.1
			c0.7,1.2,1.5,2.4,2.2,3.6c1.8,3,3.6,6.1,5.3,9.4c6,11.4,11.3,23.9,16.2,38.3c2.1,6.1,4,12.4,5.9,19.2c1.7,5.9,3.3,12.2,5,19.1
			c2.8,11.4,5.2,23.6,7.8,38.2c2.2,12.2,4.1,24.6,5.8,38c1.5,11.7-1.6,23.2-8.8,32.5c-7.2,9.3-17.5,15.3-29.2,16.8
			c-11.7,1.5-23.2-1.6-32.5-8.8c-9.3-7.2-15.3-17.5-16.8-29.2c-0.1-1-0.2-2.1-0.3-3.1l-0.3-4.8c-0.6-10.7-1.4-21.1-2.4-31
			c-26.6,7.2-52.3,17.9-76.5,31.9c0,0.1,0.1,0.2,0.1,0.3c0.6,1.5,1.2,3,1.8,4.4c0.4,1,0.9,2.1,1.3,3.1c0.6,1.5,1.3,3,1.9,4.5
			c1.3,3,2.6,6,3.9,8.9c1,2.1,1.9,4.3,2.9,6.5c3.1,7,3.2,14.8,0.5,22c-2.8,7.1-8.2,12.8-15.2,15.9
			C227.1,865.7,224.1,866.5,221,866.8 M230.2,626.7c0,0.1-0.1,0.1-0.2,0.2c-0.8,0.8-2,2.6-3.2,5c-1.2,2.2-2.3,5.2-3.6,9.1
			c-0.4,1.2-0.7,2.4-1.1,3.8c-0.2,0.6-0.3,1.1-0.5,1.7c-0.5,1.8-1,3.7-1.4,5.8c-1,4.2-1.9,8.7-2.7,12.5l-0.1,0.5
			c-0.4,2-0.8,4-1.1,6.1c-0.4,2.2-0.8,4.5-1.1,6.7c-0.3,2.1-0.5,4.3-0.7,6.9c-0.2,2.3-0.4,4.7-0.6,7c-0.1,1.6-0.2,3.2-0.2,4.8
			c0,0.8-0.1,1.6-0.1,2.3c-0.1,2.4-0.1,4.8-0.1,7.2c0,1.2,0,2.4,0,3.6l0.1,3.7c0.1,2.4,0.2,4.9,0.3,7.3c0.3,5.6,0.7,10.4,1.3,15
			c0.3,2.2,0.6,4.4,1,6.8c26.7-14.1,54.9-25,83.8-32.3c-0.8-3.5-1.7-6.9-2.6-10.2c-2.9-10.2-6.1-19.2-9.7-26.8
			c-0.9-2-1.9-3.9-2.8-5.5c-0.3-0.6-0.6-1.1-0.9-1.6c-0.2-0.3-0.4-0.6-0.5-0.9l-0.4-0.6c-0.1-0.1-0.1-0.2-0.2-0.3l-0.2-0.3
			c-0.3-0.4-0.5-0.8-0.9-1.2l-0.3-0.4c-0.6-0.7-1.2-1.5-1.8-2.2c-0.6-0.8-1-1.5-1.4-2.2c-0.1-0.2-0.3-0.5-0.4-0.7
			c-1.1-1.8-2.2-3.6-3.3-5.3c-4.6-6.9-9.6-12.8-14.4-17c-2.6-2.3-4.9-4-7.2-5.3c-1.2-0.7-2.4-1.3-3.5-1.8c-1-0.5-2.1-0.9-3.4-1.3
			c-4.7-1.4-9.6-1.4-15.4,0.2C230.5,626.6,230.3,626.6,230.2,626.7 M228,623.2C228,623.2,228,623.2,228,623.2l0.1,0.5L228,623.2z
			 M228.3,623.1C228.2,623.1,228.2,623.1,228.3,623.1L228.3,623.1z"/>
		<path class="st1" d="M525.9,813.8c-3.9,0.3-8,0.5-12,0.4c-3.8-0.1-7.7-0.3-11.6-0.8c-7.6-0.9-15.1-2.3-22.4-4.5
			c-4-1.2-7.6-2.4-10.9-3.7c-3.7-1.5-7.3-3.2-10.7-4.9c-3.7-1.9-7.2-4-10.5-6.3c-3.9-2.7-7.3-5.3-10.2-8
			c-7.4-6.8-13.1-14.2-17.1-22.2c-10.8-18.1-4.9-41.6,13.2-52.4c8.8-5.3,19-6.8,28.9-4.3s18.3,8.7,23.5,17.4l-0.1,0.1
			c0.6,0.5,2,1.5,4,2.5c4.3,2,10.5,3.5,16.1,3.9c1.5,0.1,2.9,0.1,4.4,0.1c1.3,0,2.7-0.1,4-0.3c1.7-0.2,3.1-0.5,4-0.8
			c0.1-0.1,0.1-0.3,0.2-0.4c1.2-2.6,2.1-5.2,2.7-7.7c0.2-0.8,0.4-1.7,0.5-2.5l-1.2-3.2c-1.1-0.9-2.2-1.7-3.5-2.5
			c-1.9-1.2-4.1-2.2-6.8-3.2c-2.7-1-5.6-1.7-8.9-2.3c-1.6-0.3-3.3-0.6-5.1-0.8c-0.9-0.1-1.8-0.2-2.7-0.3l-5.1-0.5
			c-6.5-0.7-12.9-1.8-20.3-3.3c-6.1-1.2-12-2.6-17.6-3.9l-0.8-0.2c-1.9-0.5-3.8-0.9-5.7-1.4c-3.9-0.9-7.9-1.9-11.8-3l-3.5-0.9
			l-1.7-0.5c-1.2-0.4-2.4-0.7-3.4-1.1l-0.9-0.3c-0.8-0.3-1.7-0.6-2.5-0.9c-4.2-1.6-8.5-3.5-13-5.8c-17.3-9.2-31.5-21.9-42-37.8
			c-5.4-8-9.8-17.2-12.9-27.1c-1.6-5.2-2.8-10.4-3.5-15.4c-0.8-5.6-1.2-11.1-1-16.2c0-1.3,0.1-2.7,0.2-4.1c0.1-1.7,0.2-3.1,0.4-4.3
			c0.2-2.5,0.6-5.1,1.2-8.2c1-5.3,2.5-10.5,4.3-15.6c3.6-9.7,8.6-18.8,14.8-27.1c3.3-4.3,6.5-8,9.9-11.4c3.5-3.5,7.3-6.8,11.3-9.9
			c3.8-2.9,8-5.6,12.8-8.3c4.7-2.6,9.4-4.8,14.1-6.5c5.4-2,10.3-3.4,15.3-4.3c2.5-0.5,5.2-0.9,8-1.2c1.5-0.2,2.8-0.3,4-0.4l0.7,0
			c1.1-0.1,2.3-0.2,3.4-0.2c2.3,0,5-0.1,7.5,0.1c2.2,0.1,4.5,0.3,7.2,0.6c4.8,0.6,9.4,1.5,13.6,2.5c4.5,1.1,8.5,2.3,12.2,3.7
			l0.3,0.1c1.8,0.7,3.6,1.4,5.3,2.1c1.8,0.8,3.5,1.6,5.3,2.4c6.6,3.2,12.7,6.8,18.6,10.9l18.5,12.9c21.8,15.2,27.5,45.2,12.7,66.9
			c-7.3,10.7-18.4,17.9-31.1,20.2c-12.8,2.3-25.6-0.5-36.2-7.9c-2.6-1.8-5.3-4.1-7.6-6.6c-6.7-7.3-12.7-11.2-15.7-12.8
			c-0.8-0.5-1.5-0.8-2.2-1.1c-0.3-0.1-0.5-0.3-0.8-0.4c-0.5-0.2-0.8-0.4-1.1-0.5l-0.1-0.1c-0.2-0.1-0.4-0.1-0.5-0.2
			c-0.2-0.1-0.4-0.2-0.6-0.2c-0.2-0.1-0.3-0.1-0.4-0.2l-0.5-0.2c-0.1,0-0.1,0-0.2-0.1c-0.1,0-0.2-0.1-0.4-0.1c-0.3-0.1-0.8,0-1.4,0
			l-0.4,0c-0.2,0-0.3,0.1-0.5,0.1c-0.1,0-0.2,0.1-0.3,0.1c-0.2,0.1-0.4,0.1-0.6,0.2l-0.1,0c-0.7,0.2-1.5,0.5-2.2,1
			c-0.9,0.5-1.6,1-2.3,1.6c-0.6,0.5-1.2,1.1-1.7,1.7l-0.2,0.2c-1,1.1-1.9,2.6-2.4,4c-0.2,0.6-0.3,1.2-0.4,1.7c0,0.3,0,0.4,0,0.4
			l0,0.2l0,0.1l0,0c0,0.2,0,0.3,0.1,0.4l0,0.2l0,0.2c0,0.3,0.2,0.8,0.4,1.3l0.1,0.1c0.2,0.5,0.5,1,0.9,1.7c0.3,0.5,0.8,1.1,1.4,1.8
			c0.5,0.5,1,1.1,1.8,1.7c1.3,1.1,2.9,2.2,4.6,3c0.7,0.3,1.5,0.6,2.4,1c0.2,0.1,0.4,0.1,0.6,0.2c0.2,0.1,0.5,0.1,0.7,0.2
			c0.1,0,0.3,0.1,0.4,0.1c0.2,0.1,0.4,0.1,0.6,0.1c0.3,0,0.6,0.1,0.9,0.2c0.5,0.1,0.9,0.2,1.3,0.2l0.2,0c0.2,0,0.4,0,0.5,0l0.1,0
			c0.1,0,0.2,0,0.2,0l0.5,0c0,0,0,0,0.4,0.1l2.3,0.5c1.5,0.3,3,0.7,4.5,1.1c0.9,0.2,1.9,0.5,2.8,0.7l3.6,0.9l3.6,0.9
			c0.7,0.2,1.4,0.4,2.1,0.5c1.6,0.4,3.2,0.8,4.8,1.2l3.3,0.8c1.1,0.3,2.2,0.5,3.3,0.8c4.2,1.1,8.3,1.9,11.8,2.5l3,0.4
			c1.8,0.2,3.6,0.5,5.6,0.8c4.4,0.7,8,1.3,11.4,2.1c8.1,1.9,16,4.3,23.3,7.3c8.5,3.5,16.2,7.6,23.1,12.2c7.5,5.1,14.5,11,20.6,17.5
			c1.5,1.6,3,3.3,4.5,5.1l2.5,3.1c0.9,1.2,1.9,2.5,2.8,3.8c3.6,5.2,6.5,10.8,8.8,16.7c2.1,5.4,3.6,11.2,4.6,17
			c0.8,5.2,1.2,10.5,1.1,15.9c-0.2,8.9-1.5,17.9-4.2,27.4c-2.3,8-5.3,15.5-9.1,22.9c-1.8,3.5-3.8,7-5.9,10.3l-2.1,3.2
			c-0.9,1.5-1.9,2.8-3.1,4.3c-2.2,2.8-4.5,5.3-6.8,7.5c-2.1,2-4.4,3.9-7.2,6c-2.6,1.9-5,3.4-7.3,4.7c-4.4,2.5-9,4.6-14,6.4
			C543.5,811.3,535.1,813,525.9,813.8 M485.9,724.9l-3,2.1c0.4,0.4,1.5,0.7,2.4-0.1C486.1,726.3,486.1,725.4,485.9,724.9 M457,607.5
			c0.1,0,0.1,0,0.1,0L457,607.5z"/>
		<path class="st1" d="M645.3,795.4c-1.7,0.2-3.5,0.2-5.3,0.1c-16.3-1.1-29.8-13.6-32.1-29.7l-0.1-0.8l-0.9-6.6l-3.1-19.8l-4.5-26.5
			c-3-16.9-6.2-35.1-9.7-53c-1.3-6.5-3-13.1-4.7-19.5c-0.6-2.3-1.2-4.6-1.8-6.9c-2.4-9.5-4.2-18.3-5.6-26.7l-0.4-3.1
			c-0.5-3.3-1-6.8-1.4-10.2l-1.1-10l-0.3-3.4c-0.9-10.7-1.2-19-0.8-26.9l0.4-10.5c1.2-29.9,26.6-53.3,56.5-52
			c29.9,1.2,53.3,26.6,52,56.5c-0.1,1.8-0.2,3.7-0.5,5.5c-1.1,7.6-1.9,15.9-2.5,26.3c-0.2,2.9-0.3,5.8-0.5,8.7
			c-0.1,1.5-0.1,3-0.2,4.5l-0.4,13.2l0,6.6c0,1.4,0,2.8,0.1,4.2c0,0.8,0,1.6,0.1,2.4c0,1.9,0.1,3.8,0.2,5.7l0.4,7.4
			c0.1,2.2,0.2,4.4,0.3,6.6c0.3,6.5,0.7,13.2,0.7,19.8l0,0c0,18.2-0.5,36.2-0.9,52.9l-0.4,13.2l-0.5,13.2l-1,19.9l-0.4,6.7
			C675.7,780.4,662,793.9,645.3,795.4"/>
		<path class="st1" d="M871.7,818.8c-21.6,1.9-41-12.6-45.3-33.9l-0.2-1.2c-1.8-9.2-4-18.2-6.6-26.8c-2.6-8.6-5.7-17.3-9.3-25.9
			c-0.3-0.7-0.6-1.4-0.9-2.2l-13,13.5c-2.9,3-5.9,5.9-8.7,8.8c-1.5,1.6-3.1,3.1-4.6,4.7l-3.4,3.4l-13.9,13.4l-12.7,11.7
			c-0.7,0.6-1.3,1.2-1.9,1.7l-11.8,10.1c-17.7,15.1-44.5,13-59.6-4.7c-6.9-8.1-10.5-18.4-10.1-29c0.4-10.6,4.7-20.5,12-28l10.3-10.4
			c0.5-0.5,1-1,1.4-1.4l10.1-10.9l11.4-13.1l2.8-3.3c1.4-1.6,2.8-3.3,4.2-4.9c2.4-2.8,4.8-5.7,7.2-8.6l11.3-13.8l11.1-14
			c1.8-2.2,3.6-4.5,5.2-6.6c-2.4-2.6-4.6-5-6.8-7.2c-6.3-6.5-13-12.7-19.8-18.4c-7.1-5.9-14.1-11.2-20.4-15.3
			c-12.2-7.9-20.6-20-23.7-34.2c-3.1-14.2-0.4-28.7,7.4-40.9c16.2-25.2,49.9-32.5,75.1-16.2c1.5,1,2.9,2,4.3,3.1l0.9,0.7
			c9.6,7.7,18.7,15.9,28.6,25.8c5.9,6,11.7,12.3,17.2,18.7c6.2-8.8,11.7-16.8,16.8-24.3c1.2-1.7,2.3-3.4,3.3-5
			c0.5-0.7,0.9-1.4,1.4-2.1l4.5-6.9l4.4-7.2l0.8-1.7c0.4-0.8,0.8-1.5,1.2-2.2l1.9-3.4c14.6-26.1,47.7-35.6,73.8-21
			c12.7,7.1,21.8,18.6,25.8,32.6c4,13.9,2.3,28.6-4.8,41.3c-0.4,0.8-1,1.7-1.6,2.6l-6.4,10c-0.2,0.3-0.3,0.4-0.4,0.6l-8.3,11.3
			l-4.5,5.9c-0.6,0.7-1.1,1.5-1.7,2.2c-1.4,1.9-2.9,3.8-4.4,5.6c-7.3,9.2-15.3,18.8-24.2,29.4c-6.1,7.3-12.6,14.9-19.3,22.6
			c2,4.3,3.9,8.5,5.7,12.7c5,11.8,9.2,23.3,12.6,34.4c3.6,11.8,6.7,23.7,9,35.4c2.3,11.7,4.1,23.8,5.3,36
			c1.1,11.3-2.2,22.3-9.3,31.1c-7.2,8.8-17.3,14.3-28.6,15.4C872.1,818.8,871.9,818.8,871.7,818.8"/>
	</g>
	<g class="st0">
		<defs>
			<path id="SVGID_5_" d="M210.7,613.8L210.7,613.8C210.7,613.8,210.6,613.8,210.7,613.8l-0.1,0L210.7,613.8z M195.4,724.8
				c-0.6-5.1-1-10.1-1.3-15.1c-0.2-2.5-0.3-5-0.3-7.4l-0.1-3.7c0-1.2,0-2.5,0-3.7c0-2.4,0-4.9,0.1-7.3c0.1-2.4,0.2-4.8,0.3-7.2
				c0.1-2.4,0.3-4.7,0.6-7.1c0.2-2.3,0.5-4.6,0.8-6.9c0.3-2.3,0.7-4.5,1.1-6.8c0.4-2.2,0.8-4.4,1.2-6.6c0.8-4.3,1.7-8.5,2.7-12.6
				c0.4-2,0.9-4,1.5-5.9c0.5-1.9,1-3.8,1.6-5.5c1.1-3.5,2.4-6.8,3.7-9.3c1.3-2.6,2.6-4.5,3.5-5.4c0.3-0.4,0.5-0.6,0.5-0.6
				c0.4-0.1,0.7-0.2,1-0.3c6.3-1.6,11.5-1.6,16.5-0.1c1.2,0.4,2.5,0.8,3.7,1.3c1.2,0.6,2.5,1.2,3.7,1.9c2.5,1.5,5,3.4,7.5,5.6
				c5,4.5,10.1,10.5,14.7,17.4c1.2,1.7,2.3,3.5,3.4,5.4c0.6,0.9,1.1,1.9,1.7,2.8c0.7,0.9,1.4,1.7,2.1,2.6c0.4,0.4,0.7,0.9,1,1.3
				c0.1,0.2,0.3,0.5,0.4,0.7l0.4,0.6c0.5,0.9,1,1.6,1.5,2.6c1,1.8,1.9,3.7,2.9,5.6c3.8,7.9,7.1,17.2,9.8,27.1c1.1,4,2.1,8,3.1,12.2
				c-30.2,7.5-59.8,18.9-87.7,33.9C196.3,731.1,195.8,727.9,195.4,724.8 M216.7,535.9c-8.8,0.1-17.4,1.4-25.6,3.5
				c-1,0.2-2,0.5-3,0.8l-0.8,0.2l-0.4,0.1l-0.5,0.2c-0.7,0.2-1.4,0.5-2.1,0.7c-2.8,1-5.5,2.1-8,3.3c-5.1,2.5-9.6,5.3-13.6,8.5
				c-4,3.1-7.6,6.4-10.8,9.8c-3.2,3.4-6,6.9-8.5,10.5c-5.1,7.1-8.9,14.3-12.2,21.5c-3.3,7.2-5.9,14.5-8,21.7
				c-1.1,3.6-2.1,7.2-3,10.8c-0.9,3.6-1.7,7.2-2.4,10.8c-0.7,3.6-1.3,7.2-1.9,10.7c-0.6,3.6-1.1,7.1-1.5,10.7
				c-1.8,14.3-2.6,28.5-2.5,42.8c0.1,7.1,0.4,14.2,1.1,21.3c0.7,7.1,1.6,14.1,2.9,21.1c2.6,13.9,6.8,27.6,12.3,40.5
				c1.3,3.2,2.8,6.4,4.4,9.6c1.5,3.2,3.1,6.3,4.9,9.3c3.5,6.1,7.4,11.8,11.9,17.2c4.4,5.4,9.3,10.4,14.7,15c2.7,2.3,5.5,4.4,8.5,6.4
				c1.5,1,3,1.9,4.6,2.8c1.6,0.9,3.2,1.7,4.9,2.5l7.7,3.4c6.6,2.8,14.2,3,21.3-0.1c13.5-5.9,19.6-21.7,13.7-35.2
				c-2.3-5.2-4.6-10.3-6.8-15.4c-1.1-2.5-2.2-5.1-3.2-7.6c-0.9-2.1-1.7-4.3-2.6-6.4c25.5-14.9,52.8-26.2,80.8-33.5
				c1.1,11,2,22.2,2.6,33.4l0.3,4.7c0.1,1,0.2,2,0.3,3c3,23,24.1,39.3,47.1,36.3c23-3,39.3-24.1,36.3-47.1
				c-1.6-12.6-3.5-25.3-5.8-37.9c-2.2-12.7-4.7-25.4-7.8-38.1c-1.5-6.3-3.2-12.7-5-19.1c-1.8-6.4-3.7-12.7-5.9-19.1
				c-4.3-12.7-9.4-25.4-16-38c-1.7-3.1-3.4-6.3-5.3-9.4c-0.9-1.5-1.9-3.1-2.9-4.6c-1-1.6-2-2.9-2.9-4.5c-0.9-1.5-1.7-3.1-2.6-4.6
				c-0.8-1.5-1.7-3.1-2.6-4.6c-1.8-3.1-3.7-6.1-5.7-9.1c-4-6-8.4-11.8-13.4-17.4c-5-5.6-10.4-11-16.5-16c-6.1-5-12.9-9.6-20.3-13.5
				c-7.5-3.8-15.6-7-24.1-9c-7.9-2-16.2-2.9-24.4-2.9C217.9,535.9,217.3,535.9,216.7,535.9"/>
		</defs>
		<clipPath id="SVGID_6_">
			<use xlink:href="#SVGID_5_"  style="overflow:visible;"/>
		</clipPath>
		
			<linearGradient id="SVGID_7_" gradientUnits="userSpaceOnUse" x1="0" y1="1080.026" x2="1" y2="1080.026" gradientTransform="matrix(107.3899 482.5944 482.5944 -107.3899 -521006.3438 116503.3203)">
			<stop  offset="0" style="stop-color:#8CC740"/>
			<stop  offset="1" style="stop-color:#29ADDC"/>
		</linearGradient>
		<polygon class="st2" points="369.8,478.5 450.1,839.5 124.7,911.9 44.4,550.9 		"/>
	</g>
	<g class="st0">
		<defs>
			<path id="SVGID_8_" d="M430.3,478.3c-1.2,0-2.6,0.1-3.9,0.2c-1.3,0.1-2.6,0.2-4,0.4c-2.6,0.3-5.2,0.7-7.8,1.2
				c-5.2,1-10.1,2.5-15,4.2c-4.8,1.8-9.4,3.9-13.8,6.3c-4.4,2.4-8.6,5.1-12.5,8.1c-3.9,3-7.7,6.2-11.1,9.7
				c-3.5,3.5-6.7,7.2-9.7,11.2c-6,7.9-10.9,16.8-14.5,26.5c-1.8,4.9-3.2,10-4.3,15.3c-0.5,2.7-0.9,5.3-1.2,8.1
				c-0.2,1.4-0.3,2.7-0.3,4.1c-0.1,1.4-0.2,2.8-0.2,4.1c-0.1,5.4,0.3,10.7,1,15.9c0.7,5.2,1.9,10.2,3.4,15.1
				c3.1,9.7,7.3,18.7,12.7,26.6c10.6,16,24.8,28.4,41.3,37.1c4.1,2.2,8.4,4.1,12.8,5.7c1.1,0.4,2.2,0.8,3.3,1.2
				c1.1,0.4,2.2,0.8,3.4,1.1l1.7,0.5l0.8,0.2l0.5,0.1l2.1,0.6c5.7,1.5,11.6,2.9,17.5,4.4c6,1.4,12,2.8,18.3,4.1
				c6.3,1.3,12.9,2.4,20.1,3.3l5,0.5c0.9,0.1,1.9,0.2,2.8,0.3c1.8,0.2,3.6,0.5,5.3,0.8c3.4,0.6,6.4,1.4,9.2,2.4
				c2.7,1,5.1,2.1,7.2,3.4c1.5,0.9,2.9,1.9,4.1,3.1c0.5,1.3,1.1,2.9,1.5,4.2c-0.1,0.9-0.3,2-0.6,3.2c-0.6,2.5-1.6,5.3-2.9,8.1
				c-0.2,0.4-0.4,0.8-0.6,1.3c-1.2,0.4-3,0.8-5.1,1.1c-1.3,0.2-2.7,0.3-4.2,0.3c-1.5,0-3,0-4.5-0.1c-6.1-0.4-12.5-2-16.9-4.1
				c-2.2-1-3.8-2.1-4.6-2.9c-0.8-0.8-0.6-1.1-0.1-0.5c-10.3-17.2-32.6-22.7-49.7-12.4c-17.2,10.3-22.7,32.6-12.4,49.7
				c4.3,8.6,10.3,15.8,16.7,21.7c3.2,2.9,6.5,5.5,9.9,7.8c3.4,2.3,6.8,4.3,10.3,6.2c3.5,1.8,7,3.4,10.6,4.9
				c3.6,1.4,7.1,2.6,10.7,3.7c7.2,2.1,14.5,3.5,22,4.4c3.8,0.4,7.5,0.7,11.4,0.8c3.9,0,7.8-0.1,11.8-0.4c8-0.7,16.3-2.2,25.2-5.3
				c4.4-1.6,9-3.6,13.7-6.3c2.3-1.3,4.7-2.9,7-4.6c2.4-1.8,4.7-3.7,7-5.9c2.3-2.2,4.5-4.6,6.6-7.3c1-1.4,2-2.7,3-4.2l1.3-2l0.8-1.2
				c2.1-3.3,4-6.7,5.8-10.2c3.6-7,6.6-14.4,8.9-22.5c2.3-8.1,4-16.9,4.2-26.8c0.1-4.9-0.2-10.2-1.1-15.6c-0.9-5.4-2.3-11-4.5-16.6
				c-2.2-5.6-5-11.2-8.6-16.3c-0.9-1.3-1.8-2.5-2.8-3.8l-0.7-0.9l-0.6-0.8l-1.1-1.3c-1.4-1.7-2.9-3.4-4.4-5
				c-6.1-6.5-13-12.3-20.3-17.2c-7.3-4.9-15-8.9-22.7-12c-7.7-3.1-15.4-5.5-23-7.2c-3.8-0.9-7.5-1.5-11.2-2.1
				c-1.9-0.3-3.7-0.5-5.5-0.7l-0.7-0.1l-0.3,0l-0.2,0l-0.6-0.1l-1.3-0.2c-3.6-0.6-7.7-1.5-12-2.6c-1.1-0.3-2.2-0.5-3.3-0.8l-3.4-0.8
				c-2.3-0.6-4.6-1.2-6.9-1.7l-3.5-0.9l-3.6-0.9c-2.4-0.6-4.8-1.2-7.3-1.8l-1.9-0.4l-0.5-0.1c-0.1,0-0.1,0-0.1,0l-0.1,0l-0.3,0
				c-0.2,0-0.3,0-0.5,0c-0.2,0-0.4,0-0.6,0c-0.8,0-1.5-0.2-2.4-0.4c-0.4-0.1-0.8-0.2-1.3-0.3c-0.4-0.2-0.9-0.3-1.3-0.4
				c-0.9-0.3-1.8-0.6-2.7-1.1c-1.8-0.9-3.5-2-5-3.2c-0.8-0.6-1.5-1.3-2.1-2c-0.6-0.7-1.2-1.4-1.6-2.1c-0.4-0.7-0.8-1.4-1.1-2.1
				c-0.3-0.7-0.5-1.3-0.6-2c0-0.2,0-0.3-0.1-0.4c0-0.1-0.1-0.3-0.1-0.4c0-0.3,0-0.6,0-0.9c0.1-0.7,0.2-1.4,0.4-2.2
				c0.5-1.5,1.5-3.2,2.8-4.8c0.7-0.7,1.3-1.5,2.1-2.2c0.8-0.6,1.6-1.2,2.5-1.7c0.8-0.5,1.7-0.8,2.6-1.1c0.4-0.2,0.8-0.3,1.2-0.4
				c0.2,0,0.4-0.1,0.6-0.1l0.6-0.1c0.8,0,1.5-0.1,2.1,0.1c0.3,0.1,0.6,0.1,0.9,0.3c0.1,0,0.3,0.1,0.4,0.2c0.1,0.1,0.2,0.1,0.4,0.2
				c0.4,0.2,0.8,0.3,1.2,0.5c0.4,0.1,0.9,0.3,1.3,0.5c0.9,0.5,1.9,0.9,3,1.6c4.4,2.5,10.2,6.8,16.2,13.2c2.1,2.3,4.7,4.5,7.3,6.4
				c21,14.7,50.1,9.5,64.6-11.8c14.3-20.9,8.5-49.6-12.2-64.1l-18.5-12.9c-5.5-3.9-11.5-7.5-18.3-10.7c-1.7-0.8-3.4-1.6-5.2-2.4
				c-1.8-0.8-3.6-1.5-5.5-2.2c-3.8-1.4-7.8-2.6-12-3.7c-4.2-1.1-8.7-1.9-13.3-2.5c-2.3-0.3-4.7-0.5-7.1-0.6
				c-1.4-0.1-2.9-0.1-4.4-0.1C432.3,478.3,431.3,478.3,430.3,478.3"/>
		</defs>
		<clipPath id="SVGID_9_">
			<use xlink:href="#SVGID_8_"  style="overflow:visible;"/>
		</clipPath>
		
			<linearGradient id="SVGID_10_" gradientUnits="userSpaceOnUse" x1="0" y1="1080.0009" x2="1" y2="1080.0009" gradientTransform="matrix(107.3899 482.5944 482.5944 -107.3899 -520778.2813 116452.5703)">
			<stop  offset="0" style="stop-color:#8CC740"/>
			<stop  offset="1" style="stop-color:#29ADDC"/>
		</linearGradient>
		<polygon class="st3" points="579,423.3 659.7,785.9 344,856.1 263.3,493.5 		"/>
	</g>
	<g class="st0">
		<defs>
			<path id="SVGID_11_" d="M578.5,519.5L578,530c-0.4,8.9,0.1,17.8,0.8,26.6l0.3,3.3l0.4,3.3l0.7,6.7c0.6,4.4,1.2,8.9,1.8,13.3
				c1.4,8.9,3.3,17.7,5.5,26.5c2.2,8.8,4.6,17.7,6.4,26.5c3.5,17.7,6.6,35.3,9.7,53l4.5,26.5l2.1,13.2l1,6.6l0.9,6.6l0.1,0.8
				c2.1,15,14.5,27,30.2,28c18,1.2,33.6-12.5,34.8-30.5l0.4-6.6l0.3-6.6l0.7-13.2l0.5-13.2l0.4-13.2c0.5-17.6,0.9-35.2,0.9-52.9
				c0-8.8-0.7-17.6-1.1-26.4l-0.3-6.6c-0.1-2.2-0.2-4.4-0.3-6.6c0-2.2-0.1-4.4-0.1-6.6l0-6.6l0.4-13.2c0.2-4.4,0.3-8.8,0.7-13.2
				c0.5-8.8,1.3-17.6,2.6-26.4c0.2-1.7,0.4-3.6,0.5-5.3c1.2-28.9-21.3-53.2-50.1-54.4c-0.7,0-1.5,0-2.2,0
				C602.8,469.3,579.6,491.4,578.5,519.5"/>
		</defs>
		<clipPath id="SVGID_12_">
			<use xlink:href="#SVGID_11_"  style="overflow:visible;"/>
		</clipPath>
		
			<linearGradient id="SVGID_13_" gradientUnits="userSpaceOnUse" x1="0" y1="1079.9708" x2="1" y2="1079.9708" gradientTransform="matrix(107.3899 482.5944 482.5944 -107.3899 -520598.375 116412.5391)">
			<stop  offset="0" style="stop-color:#8CC740"/>
			<stop  offset="1" style="stop-color:#29ADDC"/>
		</linearGradient>
		<polygon class="st4" points="679.1,446.7 748.4,758 582.7,794.8 513.4,483.6 		"/>
	</g>
	<g class="st0">
		<defs>
			<path id="SVGID_14_" d="M870,494.3l-1.9,3.4c-0.4,0.7-0.8,1.4-1.1,2.1l-0.5,1.1l-0.3,0.5c0,0.1-0.1,0.2-0.2,0.4l-0.3,0.4l-4,6.6
				l-0.5,0.8l-0.6,0.9l-1.2,1.8l-2.3,3.5c-1.6,2.4-3,4.7-4.7,7.1c-5.9,8.8-12.1,17.6-18.3,26.5c-6-7-12.2-13.8-18.7-20.5
				c-8.7-8.8-17.9-17.3-28.4-25.7l-0.9-0.7c-1.3-1-2.7-2-4.1-3c-24.3-15.7-56.7-8.6-72.3,15.6c-15.7,24.3-8.6,56.7,15.6,72.3
				c6.7,4.3,13.8,9.7,20.6,15.4c6.9,5.8,13.5,12,20,18.5c2.7,2.8,5.4,5.6,8,8.5c-2.1,2.7-4.1,5.3-6.3,7.9l-11.2,14l-11.3,13.8
				c-3.8,4.6-7.6,9-11.4,13.5l-2.8,3.4l-2.9,3.3l-5.7,6.5l-2.9,3.3l-2.9,3.1L711,705l-1.4,1.6c-0.5,0.5-1,1-1.4,1.5l-2.8,2.8
				l-5.6,5.7l-1.9,1.9c-14.4,14.7-15.5,38.3-1.8,54.3c14.4,16.9,39.9,18.9,56.8,4.5l7.9-6.7l3.9-3.4c0.7-0.6,1.3-1.1,1.9-1.7
				l1.8-1.7l7.3-6.7l3.6-3.3l3.5-3.3l6.9-6.7l3.5-3.4l3.4-3.4c4.4-4.5,9-9,13.4-13.5l13.1-13.6l2-2.2c0.7,1.7,1.4,3.3,2.1,5
				c3.5,8.5,6.6,17.2,9.3,26.1c2.6,8.9,4.8,17.9,6.6,27l0.2,1.1c4.1,20.2,22.9,34.3,43.8,32.2c22.2-2.3,38.4-22.1,36.2-44.4
				c-1.2-12-3-24-5.3-35.8c-2.4-11.9-5.4-23.6-9-35.2c-3.5-11.6-7.8-23-12.5-34.2c-2-4.6-4-9.3-6.2-13.8
				c6.8-7.8,13.5-15.6,20.1-23.5c8.1-9.6,16.1-19.3,24.2-29.4c2-2.4,4-5.1,6-7.7l3-3.9l1.5-2l0.8-1l0.8-1.1l6.3-8.6l0.4-0.5
				c0.1-0.2,0.3-0.3,0.4-0.6l0.9-1.4l1.8-2.8l3.6-5.7c0.5-0.8,1-1.7,1.5-2.5c14-25.2,5-57.1-20.2-71.1c-8.1-4.5-16.8-6.6-25.4-6.6
				C897.4,467.4,879.6,477.1,870,494.3"/>
		</defs>
		<clipPath id="SVGID_15_">
			<use xlink:href="#SVGID_14_"  style="overflow:visible;"/>
		</clipPath>
		
			<linearGradient id="SVGID_16_" gradientUnits="userSpaceOnUse" x1="0" y1="1080.0026" x2="1" y2="1080.0026" gradientTransform="matrix(107.3899 482.5944 482.5944 -107.3899 -520428 116374.6172)">
			<stop  offset="0" style="stop-color:#8CC740"/>
			<stop  offset="1" style="stop-color:#29ADDC"/>
		</linearGradient>
		<polygon class="st5" points="961.6,405.3 1046.2,785.7 696.1,863.6 611.5,483.2 		"/>
	</g>
	<g class="st0">
		<defs>
			<rect id="SVGID_17_" width="1080" height="1080"/>
		</defs>
		<clipPath id="SVGID_18_">
			<use xlink:href="#SVGID_17_"  style="overflow:visible;"/>
		</clipPath>
		<path class="st6" d="M203,855.5c-4.7,0.4-9.5-0.3-13.9-2.2l-7.8-3.4c-1.7-0.7-3.4-1.6-5.1-2.6c-1.4-0.8-2.9-1.7-4.7-2.9
			c-3-2-5.9-4.2-8.7-6.5c-5.2-4.4-10.3-9.5-15-15.2c-4.4-5.3-8.4-11.2-12.1-17.5c-1.6-2.9-3.3-5.9-4.9-9.4c-1.6-3.2-3.1-6.4-4.4-9.7
			c-5.5-13-9.7-26.8-12.4-40.9c-1.3-6.8-2.2-14-2.9-21.3c-0.6-6.8-1-13.9-1.1-21.5c-0.1-14.2,0.7-28.7,2.5-43
			c0.5-3.8,1-7.4,1.5-10.8c0.7-4.4,1.3-7.7,1.9-10.8c0.8-3.7,1.6-7.4,2.4-10.8c0.8-3.3,1.7-6.8,3-10.9c2.3-7.8,4.9-14.9,8.1-21.9
			c3.9-8.5,7.8-15.5,12.4-21.9c3-4.2,5.8-7.6,8.7-10.7c3.4-3.6,7.1-7,11-10c4.2-3.3,8.9-6.2,14-8.7c2.7-1.3,5.4-2.4,8.2-3.4
			c0.5-0.2,1.1-0.4,1.7-0.6l2.8-0.8c0.9-0.2,1.7-0.5,2.6-0.7c9-2.2,17.8-3.4,26-3.5c9.3-0.2,18.3,0.8,26.7,2.9
			c8.3,2,16.6,5.1,24.5,9.2c7,3.6,13.8,8.1,20.7,13.7c5.6,4.6,11.1,9.9,16.8,16.3c4.8,5.4,9.3,11.3,13.5,17.6c2,3,3.9,6.1,5.7,9.2
			c0.9,1.6,1.8,3.1,2.6,4.7c0.3,0.5,0.6,1.1,0.9,1.6c0.5,1,1.1,2,1.6,2.9c0.6,0.9,1.1,1.8,1.7,2.7c0.4,0.6,0.7,1.1,1.1,1.7l0.7,1.1
			c0.7,1.2,1.5,2.4,2.2,3.6c1.8,3,3.6,6.1,5.3,9.4c6,11.4,11.3,23.9,16.2,38.3c2.1,6.1,4,12.4,5.9,19.2c1.7,5.9,3.3,12.2,5,19.1
			c2.8,11.4,5.2,23.6,7.8,38.2c2.2,12.2,4.1,24.6,5.8,38c1.5,11.7-1.6,23.2-8.8,32.5s-17.5,15.3-29.2,16.8
			c-11.7,1.5-23.2-1.6-32.5-8.8c-9.3-7.2-15.3-17.5-16.8-29.2c-0.1-1-0.2-2.1-0.3-3.1l-0.3-4.8c-0.6-10.7-1.4-21.1-2.4-31
			c-26.6,7.2-52.3,17.9-76.5,31.9c0,0.1,0.1,0.2,0.1,0.3c0.6,1.5,1.2,3,1.8,4.4c0.4,1,0.9,2.1,1.3,3.1c0.6,1.5,1.3,3,1.9,4.5
			c1.3,3,2.6,6,3.9,8.9c1,2.1,1.9,4.3,2.9,6.5c3.1,7,3.2,14.8,0.5,22c-2.8,7.1-8.2,12.8-15.2,15.9
			C209.1,854.5,206.1,855.2,203,855.5 M209.6,538.3c-5.8,0.5-11.8,1.5-18,3c-0.8,0.2-1.7,0.4-2.5,0.6l-2.6,0.8
			c-0.5,0.2-1.1,0.3-1.6,0.5c-2.7,0.9-5.3,2-7.8,3.2c-4.8,2.4-9.3,5.1-13.3,8.2c-3.7,2.9-7.3,6.2-10.5,9.6
			c-2.8,2.9-5.4,6.2-8.3,10.3c-4.4,6.2-8.2,12.9-12,21.2c-3.1,6.8-5.7,13.8-7.9,21.4c-1.2,4.1-2.2,7.5-2.9,10.7
			c-0.8,3.4-1.6,7-2.4,10.7c-0.6,3-1.2,6.3-1.9,10.6c-0.6,3.4-1.1,6.9-1.5,10.6c-1.7,14.2-2.6,28.5-2.4,42.5
			c0.1,7.5,0.4,14.4,1.1,21.2c0.7,7.2,1.7,14.2,2.9,20.9c2.6,13.8,6.7,27.3,12.1,40.1c1.3,3.2,2.8,6.3,4.3,9.5
			c1.6,3.4,3.2,6.4,4.8,9.2c3.5,6.1,7.4,11.8,11.7,17c4.6,5.6,9.4,10.5,14.5,14.7c2.7,2.3,5.5,4.4,8.3,6.3c1.8,1.2,3.2,2,4.5,2.8
			c1.7,0.9,3.2,1.7,4.8,2.4l7.7,3.4c6.3,2.7,13.5,2.7,19.7-0.1c12.5-5.5,18.2-20.1,12.7-32.6c-1-2.2-1.9-4.3-2.9-6.4
			c-1.3-2.9-2.7-6-4-9c-0.7-1.5-1.3-3-1.9-4.6c-0.4-1-0.9-2.1-1.3-3.1c-0.6-1.5-1.2-3-1.8-4.5c-0.3-0.6-0.5-1.3-0.8-1.9l-0.6-1.6
			l1.5-0.9c25.6-15,53-26.3,81.3-33.7l2.2-0.6l0.2,2.3c1.1,10.6,2,21.9,2.6,33.5l0.3,4.7c0.1,0.9,0.1,1.9,0.3,2.8
			c1.4,10.6,6.8,20,15.3,26.6c8.5,6.5,19,9.4,29.6,8c10.6-1.4,20-6.8,26.6-15.3c6.5-8.5,9.4-19,8-29.6c-1.7-13.4-3.6-25.7-5.8-37.9
			c-2.6-14.5-5-26.6-7.8-37.9l0,0c-1.6-6.9-3.3-13.1-5-19c-1.9-6.8-3.8-13-5.9-19c-4.8-14.2-10-26.5-15.9-37.7
			c-1.7-3.3-3.5-6.3-5.2-9.2c-0.7-1.2-1.4-2.3-2.1-3.4l-0.7-1.2c-0.4-0.6-0.7-1.1-1.1-1.7c-0.6-1-1.2-1.9-1.8-2.9
			c-0.6-1-1.2-2.1-1.7-3.1c-0.3-0.5-0.6-1-0.9-1.6c-0.8-1.5-1.7-3.1-2.6-4.6c-1.8-3.1-3.7-6.1-5.6-9c-4.1-6.2-8.5-12-13.2-17.2
			c-5.5-6.2-10.8-11.4-16.3-15.8c-6.7-5.4-13.2-9.8-20-13.2c-7.7-3.9-15.6-6.9-23.6-8.9c-8.1-2-16.7-3-25.7-2.8
			C214.4,537.9,212.1,538.1,209.6,538.3 M195.3,737.4l-0.5-2.7c-0.6-3.3-1.1-6.6-1.5-9.7c-0.6-4.6-1-9.6-1.3-15.2
			c-0.2-2.5-0.3-5-0.3-7.5l-0.1-3.7c0-1.2,0-2.5,0-3.7c0-2.4,0-4.9,0.1-7.4c0-0.8,0.1-1.6,0.1-2.3c0.1-1.6,0.1-3.3,0.2-4.9
			c0.1-2.4,0.3-4.8,0.6-7.1c0.2-2.6,0.5-4.9,0.8-7c0.3-2.3,0.7-4.6,1.1-6.9c0.3-2.1,0.7-4.1,1.1-6.1l0.1-0.5
			c0.8-3.9,1.7-8.4,2.7-12.6c0.5-2.2,0.9-4.1,1.5-6c0.2-0.6,0.3-1.1,0.5-1.7c0.4-1.3,0.7-2.7,1.2-3.9c1.3-4.2,2.6-7.2,3.8-9.6
			c1.4-2.8,2.9-4.8,3.7-5.8l0-0.8l0.9-0.3v0l0.1,0v0l0.6-0.2c0.3-0.1,0.6-0.2,0.9-0.2c6.4-1.7,12.1-1.7,17.5-0.1
			c1.5,0.5,2.8,0.9,3.9,1.4c1.3,0.6,2.6,1.3,3.9,2c2.5,1.5,5,3.4,7.8,5.8c5.1,4.5,10.3,10.7,15.1,17.8c1.2,1.7,2.3,3.6,3.5,5.5
			c0.1,0.2,0.3,0.5,0.4,0.7c0.4,0.7,0.8,1.3,1.2,1.9c0.5,0.7,1.1,1.4,1.7,2.1l0.3,0.4c0.4,0.5,0.8,1,1.1,1.5l0.2,0.2
			c0.1,0.2,0.2,0.4,0.3,0.5l0.4,0.6c0.2,0.3,0.3,0.6,0.5,0.9c0.3,0.6,0.7,1.1,1,1.8c0.9,1.7,1.9,3.6,2.9,5.7c3.7,7.7,7,17,9.9,27.4
			c1.1,3.9,2.1,8,3.1,12.2l0.4,1.9l-1.9,0.5c-30.2,7.5-59.5,18.8-87.2,33.7L195.3,737.4z M212.2,615.4c0,0.1-0.1,0.1-0.2,0.2
			c-0.8,0.8-2,2.6-3.2,5c-1.2,2.2-2.3,5.2-3.6,9.1c-0.4,1.2-0.7,2.4-1.1,3.8c-0.2,0.6-0.3,1.1-0.5,1.7c-0.5,1.8-1,3.7-1.4,5.8
			c-1,4.2-1.9,8.7-2.7,12.5l-0.1,0.5c-0.4,2-0.8,4-1.1,6.1c-0.4,2.2-0.8,4.5-1.1,6.7c-0.3,2.1-0.5,4.3-0.7,6.9
			c-0.2,2.3-0.4,4.7-0.6,7c-0.1,1.6-0.2,3.2-0.2,4.8c0,0.8-0.1,1.6-0.1,2.3c-0.1,2.4-0.1,4.8-0.1,7.2c0,1.2,0,2.4,0,3.6l0.1,3.7
			c0.1,2.4,0.2,4.9,0.3,7.3c0.3,5.6,0.7,10.4,1.3,15c0.3,2.2,0.6,4.4,1,6.8c26.7-14.1,54.9-25,83.8-32.3c-0.8-3.5-1.7-6.9-2.6-10.2
			c-2.9-10.2-6.1-19.2-9.7-26.8c-0.9-2-1.9-3.9-2.8-5.5c-0.3-0.6-0.6-1.1-0.9-1.6c-0.2-0.3-0.4-0.6-0.5-0.9l-0.4-0.6
			c-0.1-0.1-0.1-0.2-0.2-0.3l-0.2-0.3c-0.3-0.4-0.5-0.8-0.9-1.2l-0.3-0.4c-0.6-0.7-1.2-1.5-1.8-2.2c-0.6-0.8-1-1.5-1.4-2.2
			c-0.1-0.2-0.3-0.5-0.4-0.7c-1.1-1.8-2.2-3.6-3.3-5.3c-4.6-6.9-9.6-12.8-14.4-17c-2.6-2.3-4.9-4-7.2-5.3c-1.2-0.7-2.4-1.3-3.5-1.8
			c-1-0.5-2.1-0.9-3.4-1.3c-4.7-1.4-9.6-1.4-15.4,0.2C212.5,615.4,212.4,615.4,212.2,615.4 M210,611.9
			C210,611.9,210,611.9,210,611.9l0.1,0.5L210,611.9z M210.3,611.9C210.3,611.9,210.2,611.9,210.3,611.9L210.3,611.9z"/>
		<path class="st6" d="M592,688.4c-0.9-5.9-2.5-11.6-4.6-17c-2.3-5.9-5.2-11.5-8.8-16.7c-0.9-1.3-1.9-2.6-2.8-3.8l-2.5-3.1
			c-1.5-1.8-3-3.5-4.5-5.1c-6.1-6.6-13.1-12.4-20.6-17.5c-6.8-4.6-14.6-8.7-23.1-12.2c-7.3-3-15.1-5.4-23.3-7.3
			c-3.4-0.8-7-1.5-11.4-2.1c-2-0.3-3.8-0.5-5.6-0.8l-3-0.4c-3.5-0.6-7.6-1.5-11.8-2.5c-1.1-0.3-2.2-0.5-3.3-0.8l-3.3-0.8
			c-1.6-0.4-3.2-0.8-4.8-1.2c-0.7-0.2-1.4-0.3-2.1-0.5l-3.6-0.9l-3.6-0.9c-0.9-0.2-1.9-0.5-2.8-0.7c-1.5-0.4-3-0.8-4.5-1.1l-2.3-0.5
			c-0.3-0.1-0.4-0.1-0.4-0.1l-0.5,0c-0.1,0-0.2,0-0.2,0l-0.1,0c-0.1,0-0.3,0-0.5,0l-0.2,0c-0.4,0-0.8-0.1-1.3-0.2
			c-0.3-0.1-0.6-0.1-0.9-0.2c-0.2,0-0.4-0.1-0.6-0.1c-0.1,0-0.3-0.1-0.4-0.1c-0.2-0.1-0.5-0.1-0.7-0.2c-0.2-0.1-0.4-0.1-0.6-0.2
			c-1-0.3-1.8-0.6-2.4-1c-1.7-0.8-3.3-1.9-4.6-3c-0.8-0.7-1.4-1.2-1.8-1.7c-0.6-0.7-1.1-1.3-1.4-1.8c-0.5-0.7-0.7-1.2-0.9-1.7
			l-0.1-0.1c-0.2-0.5-0.4-1-0.4-1.3l0-0.2l0-0.2c0-0.1,0-0.2-0.1-0.4l0,0l0-0.1l0-0.2c0,0,0-0.2,0-0.4c0.1-0.6,0.2-1.1,0.4-1.7
			c0.5-1.5,1.4-2.9,2.4-4l0.2-0.2c0.6-0.6,1.1-1.2,1.7-1.7c0.7-0.5,1.4-1,2.3-1.6c0.7-0.4,1.5-0.7,2.2-1l0.1,0
			c0.2-0.1,0.4-0.1,0.6-0.2c0.1,0,0.2-0.1,0.3-0.1c0.2,0,0.3,0,0.5-0.1l0.4,0c0.6,0,1.1-0.1,1.4,0c0.1,0,0.2,0.1,0.4,0.1
			c0.1,0,0.1,0,0.2,0.1l0.5,0.2c0.1,0,0.2,0.1,0.4,0.2c0.2,0.1,0.4,0.2,0.6,0.2c0.2,0.1,0.3,0.1,0.5,0.2l0.1,0.1
			c0.3,0.1,0.7,0.3,1.1,0.5c0.2,0.1,0.5,0.3,0.8,0.4c0.7,0.3,1.4,0.7,2.2,1.1c3,1.7,9,5.6,15.7,12.8c2.3,2.5,5,4.8,7.6,6.6
			c10.6,7.4,23.5,10.3,36.3,7.9c12.8-2.3,23.8-9.5,31.1-20.2c14.7-21.6,9-51.6-12.7-66.9l-18.5-12.9c-5.9-4.2-12-7.7-18.6-10.9
			c-1.8-0.8-3.5-1.6-5.3-2.4c-1.7-0.7-3.5-1.4-5.3-2.1l-0.3-0.1c-3.7-1.4-7.7-2.6-12.2-3.7c-4.2-1.1-8.8-1.9-13.6-2.5
			c-2.7-0.3-5-0.5-7.2-0.6c-2.5-0.2-5.2-0.1-7.5-0.1c-1.1,0-2.2,0.1-3.4,0.2l-0.7,0c-1.3,0.1-2.5,0.2-4,0.4c-2.8,0.3-5.5,0.8-8,1.2
			c-4.9,1-9.9,2.4-15.3,4.3c-4.7,1.7-9.4,3.9-14.1,6.5c-4.8,2.6-9,5.4-12.8,8.3c-4,3.1-7.9,6.4-11.3,9.9c-3.4,3.3-6.6,7.1-9.9,11.4
			c-6.3,8.3-11.2,17.4-14.8,27.1c-1.8,5.1-3.3,10.3-4.3,15.6c-0.6,3.1-1,5.7-1.2,8.2c-0.1,1.2-0.3,2.6-0.4,4.3
			c-0.1,1.4-0.2,2.8-0.2,4.1c-0.1,5.1,0.2,10.6,1,16.2c0.7,5.1,1.9,10.2,3.5,15.4c3.2,9.9,7.5,19.1,12.9,27.1
			c10.5,15.9,24.7,28.6,42,37.8c4.5,2.3,8.7,4.3,13,5.8c0.8,0.3,1.7,0.6,2.5,0.9l0.9,0.3c1.1,0.4,2.2,0.8,3.4,1.1l1.7,0.5l3.5,0.9
			c3.9,1,7.9,2,11.8,3c1.9,0.5,3.8,0.9,5.7,1.4l0.8,0.2c5.7,1.3,11.5,2.7,17.6,3.9c7.4,1.5,13.8,2.5,20.3,3.3l5.1,0.5
			c0.9,0.1,1.8,0.2,2.7,0.3c1.8,0.2,3.5,0.5,5.1,0.8c3.2,0.6,6.2,1.4,8.9,2.3c2.7,1,4.9,2,6.8,3.2c1.3,0.8,2.4,1.6,3.5,2.5l1.2,3.2
			c-0.1,0.8-0.3,1.6-0.5,2.5c-0.6,2.5-1.6,5.2-2.7,7.7c-0.1,0.1-0.1,0.3-0.2,0.4c-0.9,0.2-2.3,0.5-4,0.8c-1.3,0.2-2.6,0.3-4,0.3
			c-1.4,0-2.9,0-4.4-0.1c-5.7-0.4-11.9-1.9-16.1-3.9c-2-1-3.5-1.9-4-2.5l0.1-0.1c-5.3-8.8-13.6-14.9-23.5-17.4
			c-9.9-2.5-20.2-1-28.9,4.3c-18.1,10.8-24,34.3-13.2,52.4c4,8,9.7,15.4,17.1,22.2c2.9,2.7,6.2,5.3,10.2,8c3.3,2.2,6.8,4.3,10.5,6.3
			c3.4,1.8,7,3.4,10.7,4.9c3.4,1.3,6.9,2.6,10.9,3.7c7.3,2.1,14.8,3.6,22.4,4.5c3.9,0.4,7.8,0.7,11.6,0.8c4,0.1,8-0.1,12-0.4
			c9.2-0.8,17.6-2.6,25.7-5.4c5-1.8,9.6-3.9,14-6.4c2.3-1.3,4.7-2.9,7.3-4.7c2.8-2.1,5.1-4,7.2-6c2.3-2.2,4.6-4.7,6.8-7.5
			c1.2-1.6,2.2-2.9,3.1-4.3l2.1-3.2c2.1-3.3,4.1-6.8,5.9-10.3c3.8-7.4,6.8-14.8,9.1-22.9c2.7-9.5,4.1-18.5,4.2-27.4
			C593.3,698.9,592.9,693.6,592,688.4 M439.1,596.3c0,0-0.1,0-0.1,0L439.1,596.3z M589.2,704.3c-0.2,8.7-1.4,17-4.1,26.3
			c-2.2,7.8-5.1,15-8.8,22.1c-1.8,3.4-3.7,6.8-5.7,10l-2,3.2c-0.9,1.3-1.8,2.6-2.9,4.1c-2,2.6-4.2,5-6.4,7.1c-2,1.9-4.1,3.7-6.8,5.7
			c-2.4,1.7-4.7,3.2-6.9,4.5c-4.2,2.4-8.6,4.4-13.4,6.1c-7.8,2.7-15.8,4.4-24.7,5.2c-3.8,0.3-7.7,0.5-11.6,0.4
			c-3.7-0.1-7.5-0.3-11.2-0.8c-7.3-0.8-14.6-2.3-21.7-4.3c-3.9-1.1-7.3-2.3-10.6-3.6c-3.6-1.4-7.1-3-10.4-4.8c-3.5-1.9-7-3.9-10.1-6
			c-3.8-2.6-6.9-5-9.7-7.6c-7-6.4-12.5-13.5-16.3-21.1l-0.1-0.1c-9.7-16.2-4.4-37.3,11.8-47c4.5-2.7,9.5-4.3,14.6-4.8
			c3.7-0.3,7.6,0,11.3,0.9c8.5,2.1,15.6,7.3,20.4,14.5c0.1,0.9,0.8,1.6,1.1,1.9c1,1,2.9,2.2,5.1,3.3c4.7,2.2,11.4,3.9,17.6,4.3
			c1.6,0.1,3.2,0.2,4.7,0.1c1.5,0,3-0.2,4.4-0.3c2.6-0.3,4.5-0.8,5.4-1.1l0.8-0.3l0.5-1.1c0.2-0.3,0.3-0.7,0.5-1
			c1.3-2.8,2.3-5.7,3-8.5c0.3-1.2,0.5-2.3,0.7-3.4l0.1-0.5l-1.9-5.1l-0.4-0.3c-1.4-1.2-2.8-2.3-4.4-3.2c-2.1-1.3-4.6-2.5-7.5-3.6
			c-2.9-1-6.1-1.9-9.5-2.5c-1.7-0.3-3.5-0.6-5.4-0.8c-0.9-0.1-1.9-0.2-2.8-0.3l-5-0.5c-6.3-0.7-12.6-1.8-19.9-3.2
			c-6-1.2-11.9-2.6-17.5-3.9l-0.7-0.2c-1.9-0.5-3.8-0.9-5.7-1.4c-4.1-1-7.9-1.9-11.7-2.9l-2.1-0.6l-2.9-0.9
			c-1.2-0.4-2.2-0.7-3.3-1.1l-0.9-0.3c-0.8-0.3-1.6-0.5-2.4-0.8c-4.1-1.5-8.2-3.4-12.5-5.6c-16.7-8.9-30.4-21.1-40.5-36.5
			c-5.2-7.7-9.4-16.5-12.4-26.1c-1.5-5-2.7-9.9-3.4-14.8c-0.8-5.4-1.1-10.6-1-15.6c0-1.2,0.1-2.6,0.2-4c0.1-1.6,0.2-2.8,0.3-4
			c0.2-2.4,0.6-4.9,1.2-7.9c1-5,2.4-10.1,4.2-15c3.4-9.3,8.2-18.1,14.2-26c3.2-4.2,6.3-7.8,9.5-11c3.4-3.3,7-6.6,11-9.5
			c3.7-2.8,7.7-5.4,12.3-8c4.5-2.5,9.1-4.6,13.5-6.2c5.2-1.9,10-3.2,14.6-4.2c2.4-0.4,5-0.9,7.7-1.2c1.5-0.2,2.7-0.3,3.8-0.4l0.7,0
			c1.1-0.1,2.2-0.1,3.1-0.2c2.3,0,4.8-0.1,7.3,0.1c2.1,0.1,4.4,0.3,7,0.6c4.6,0.6,9,1.4,13.1,2.4c4.4,1.1,8.2,2.3,11.8,3.6l0.3,0.1
			c1.7,0.7,3.5,1.3,5.1,2.1c1.8,0.7,3.5,1.5,5.1,2.3c6.4,3.1,12.3,6.6,18,10.6l18.5,12.9c20,14,25.2,41.5,11.7,61.4
			c-6.7,9.8-16.8,16.4-28.5,18.6c-11.7,2.1-23.5-0.4-33.3-7.3c-2.4-1.7-4.9-3.8-7-6.1c-7.1-7.6-13.5-11.8-16.6-13.6
			c-0.9-0.5-1.7-0.9-2.4-1.3c-0.3-0.1-0.5-0.2-0.8-0.4l-0.1,0c-0.5-0.2-1-0.4-1.4-0.6c-0.3-0.1-0.5-0.2-0.7-0.3
			c-0.1,0-0.3-0.1-0.4-0.2c-0.1,0-0.1-0.1-0.2-0.1l-0.1,0c-0.2-0.1-0.4-0.2-0.6-0.3c-0.3-0.1-0.5-0.2-0.7-0.2c-0.1,0-0.2,0-0.2-0.1
			l-0.1,0c-0.9-0.2-1.8-0.2-2.7-0.1l0,0l-0.6,0.1l-0.2,0c-0.1,0-0.3,0.1-0.5,0.1l-0.3,0.1c-0.1,0-0.2,0.1-0.3,0.1
			c-0.3,0.1-0.6,0.2-1,0.3c-0.8,0.3-1.9,0.7-2.9,1.3c-1,0.6-1.9,1.2-2.6,1.8c-0.9,0.7-1.6,1.5-2.2,2.2l-0.2,0.2
			c-1.7,2-2.7,4-3.2,5.4l0,0.1c-0.2,0.8-0.4,1.7-0.5,2.5l0,0.1c0,0.4,0,0.8,0,1.2c0,0.3,0.1,0.5,0.1,0.6c0,0.1,0,0.3,0.1,0.4
			c0.1,0.8,0.4,1.6,0.7,2.2l0,0.1c0.4,0.9,0.9,1.8,1.3,2.4c0.4,0.7,1,1.4,1.8,2.3c0.6,0.7,1.3,1.4,2.3,2.2c1.6,1.3,3.4,2.5,5.4,3.5
			c0.9,0.4,1.8,0.8,2.9,1.2c0.2,0.1,0.5,0.1,0.7,0.2c0.2,0.1,0.4,0.1,0.6,0.2l0.2,0.1c0.1,0,0.3,0.1,0.4,0.1c0.3,0.1,0.6,0.2,1,0.2
			c0.3,0,0.5,0.1,0.8,0.1c0.6,0.1,1.1,0.2,1.8,0.3c0.2,0,0.3,0,0.5,0c0.2,0,0.4,0.1,0.6,0.1l2.4,0.6c1.5,0.3,3,0.7,4.4,1.1
			c1,0.2,1.9,0.5,2.8,0.7l3.6,0.9l3.5,0.9c0.7,0.2,1.4,0.4,2.1,0.5c1.6,0.4,3.2,0.8,4.8,1.2l3.4,0.9c1.1,0.3,2.2,0.5,3.2,0.8
			c4.3,1.1,8.5,2,12.2,2.6l1.3,0.2l1.9,0.3c1.7,0.2,3.5,0.4,5.5,0.7c4.3,0.6,7.8,1.3,11.1,2.1c7.9,1.8,15.6,4.2,22.7,7.1
			c8.2,3.4,15.7,7.3,22.3,11.8c7.3,4.9,14,10.6,19.9,16.9c1.4,1.5,2.9,3.2,4.3,4.9l1,1.3l1.4,1.7c0.9,1.2,1.8,2.4,2.7,3.6
			c3.4,4.9,6.2,10.3,8.4,15.9l0,0c2,5.2,3.5,10.6,4.4,16.2C588.9,694,589.3,699.1,589.2,704.3"/>
		<path class="st6" d="M647.7,773c-1.7,0.2-3.5,0.2-5.3,0.1c-16.3-1.1-29.8-13.6-32.1-29.7l-0.1-0.8l-0.9-6.6l-3.1-19.8l-4.5-26.5
			c-2.9-16.9-6.2-35.1-9.7-53c-1.3-6.5-3-13.1-4.7-19.5c-0.6-2.3-1.2-4.6-1.8-6.9c-2.4-9.5-4.2-18.3-5.6-26.7l-0.4-3.1
			c-0.5-3.3-1-6.8-1.4-10.2l-1.1-10l-0.3-3.4c-0.9-10.7-1.2-19-0.8-26.9l0.4-10.5c1.2-29.9,26.6-53.3,56.5-52
			c29.9,1.2,53.3,26.6,52,56.5c-0.1,1.8-0.2,3.7-0.5,5.5c-1.1,7.6-1.9,15.9-2.5,26.3c-0.2,2.9-0.3,5.8-0.5,8.7
			c-0.1,1.5-0.1,3-0.2,4.5l-0.4,13.2l0,6.6c0,1.4,0,2.8,0.1,4.2c0,0.8,0,1.6,0.1,2.4c0,1.9,0.1,3.8,0.2,5.7l0.4,7.4
			c0.1,2.2,0.2,4.4,0.3,6.6c0.3,6.5,0.7,13.2,0.7,19.8v0c0,18.2-0.5,36.2-0.9,52.9l-0.4,13.2l-0.5,13.2l-1,19.9l-0.4,6.7
			C678.2,758,664.5,771.5,647.7,773 M626.3,471.5c-11,1-21.4,5.5-29.6,13.1c-9.9,9.1-15.6,21.5-16.2,35l-0.4,10.5
			c-0.3,7.7-0.1,15.8,0.8,26.4l0.3,3.3l1.1,9.9c0.4,3.3,0.9,6.8,1.4,10.1l0.4,3.1c1.3,8.3,3.1,16.9,5.5,26.3
			c0.6,2.3,1.2,4.6,1.8,6.9c1.6,6.4,3.3,13.1,4.7,19.7c3.5,18,6.8,36.1,9.7,53.1l4.5,26.5l3.1,19.9l1.1,7.5
			c2,14.3,14,25.3,28.4,26.3c16.9,1.1,31.6-11.7,32.7-28.6l0.4-6.6l1-19.8l0.5-13.2l0.4-13.2c0.5-16.7,0.9-34.6,0.9-52.8
			c0-6.5-0.4-13.2-0.7-19.6c-0.1-2.2-0.2-4.4-0.3-6.7l-0.4-7.4c-0.1-1.9-0.2-3.9-0.2-5.9c0-0.8,0-1.5-0.1-2.3c0-1.4-0.1-2.9-0.1-4.3
			l0-6.6l0.4-13.3c0.1-1.5,0.1-3,0.2-4.5c0.1-2.9,0.3-5.9,0.5-8.8c0.6-10.4,1.5-18.9,2.6-26.6c0.2-1.7,0.4-3.5,0.5-5.1
			c1.1-27.7-20.5-51.2-48.2-52.3C630.6,471.3,628.4,471.3,626.3,471.5"/>
		<path class="st6" d="M886.4,801.4c-21.6,1.9-41-12.6-45.3-33.9l-0.2-1.2c-1.8-9.2-4-18.2-6.6-26.8c-2.6-8.6-5.7-17.3-9.3-25.9
			c-0.3-0.7-0.6-1.4-0.9-2.2l-13,13.5c-2.9,3-5.9,5.9-8.7,8.8c-1.6,1.6-3.1,3.1-4.6,4.7l-3.4,3.4l-13.9,13.4L767.7,767
			c-0.7,0.6-1.3,1.2-1.9,1.7L754,778.8c-17.7,15.1-44.5,13-59.6-4.7c-6.9-8.1-10.5-18.4-10.1-29c0.4-10.5,4.7-20.5,12-28l10.3-10.4
			c0.5-0.5,1-1,1.4-1.4l10.1-10.9l11.4-13.1l2.8-3.3c1.4-1.6,2.8-3.3,4.2-4.9c2.4-2.8,4.8-5.7,7.2-8.6l11.3-13.8l11.1-14
			c1.8-2.2,3.6-4.5,5.2-6.6c-2.4-2.6-4.6-5-6.8-7.2c-6.3-6.5-13-12.7-19.8-18.4c-7.1-5.9-14.1-11.2-20.4-15.3
			c-12.2-7.9-20.6-20-23.7-34.2c-3.1-14.2-0.4-28.7,7.4-40.9c16.2-25.2,49.9-32.5,75.1-16.2c1.5,1,2.9,2,4.3,3.1l0.9,0.7
			c9.6,7.7,18.7,15.9,28.6,25.8c5.9,6,11.7,12.3,17.2,18.7c6.2-8.8,11.7-16.8,16.8-24.3c1.2-1.7,2.3-3.4,3.3-5
			c0.5-0.7,0.9-1.4,1.4-2.1l4.5-6.9l4.4-7.2l0.8-1.7c0.4-0.8,0.8-1.5,1.2-2.2l1.9-3.4c14.6-26.1,47.7-35.6,73.8-21
			c12.7,7.1,21.8,18.6,25.8,32.6c4,13.9,2.3,28.6-4.8,41.3c-0.4,0.8-1,1.7-1.6,2.6l-6.4,10c-0.2,0.3-0.3,0.4-0.4,0.6l-8.3,11.3
			l-4.5,5.9c-0.6,0.7-1.1,1.5-1.7,2.2c-1.4,1.9-2.9,3.8-4.4,5.6c-7.3,9.2-15.2,18.8-24.2,29.4c-6.1,7.3-12.6,14.9-19.3,22.6
			c2,4.3,3.9,8.5,5.7,12.7c5,11.8,9.2,23.3,12.6,34.4c3.6,11.8,6.7,23.7,9,35.4c2.3,11.7,4.1,23.8,5.3,36
			c1.1,11.3-2.2,22.3-9.3,31.1c-7.2,8.8-17.3,14.3-28.6,15.4C886.8,801.3,886.6,801.3,886.4,801.4 M825.3,704.3l1.2,2.8
			c0.8,1.9,1.5,3.5,2.1,5.1c3.6,8.7,6.7,17.5,9.4,26.3c2.6,8.8,4.8,17.9,6.7,27.2l0.2,1.1c3.9,19.3,21.5,32.4,41,30.7
			c0.2,0,0.4,0,0.6-0.1c10.2-1,19.4-6,25.9-14s9.5-18,8.5-28.2c-1.2-12.1-3-24.1-5.3-35.7c-2.4-11.6-5.4-23.4-8.9-35
			c-3.3-10.9-7.5-22.4-12.4-34c-1.9-4.5-4-9.1-6.1-13.8l-0.6-1.2l0.9-1c7-8,13.7-15.9,20.1-23.5c8.9-10.6,16.8-20.1,24.1-29.3
			c1.4-1.8,2.9-3.7,4.3-5.5c0.6-0.7,1.1-1.5,1.7-2.2l6-7.9l6.7-9.2c0.1-0.1,0.2-0.3,0.3-0.4l2.8-4.3l3.6-5.7c0.5-0.8,1-1.7,1.4-2.4
			c6.5-11.7,8.1-25.3,4.4-38.2c-3.7-12.9-12.2-23.6-23.9-30.2c-24.2-13.5-54.9-4.8-68.4,19.5l-1.9,3.4c-0.4,0.7-0.7,1.4-1.1,2.1
			l-0.8,1.5c-0.1,0.2-0.2,0.4-0.3,0.5l-5.4,8.8l-3.5,5.3c-0.5,0.7-0.9,1.4-1.4,2.1c-1.1,1.6-2.2,3.3-3.4,5.1
			c-5.5,8.1-11.5,16.8-18.3,26.5l-1.5,2.1l-1.7-1.9c-6-7-12.2-13.9-18.6-20.4c-9.7-9.8-18.7-17.9-28.2-25.5l-0.9-0.7
			c-1.3-1-2.6-2-4-2.8c-11.3-7.3-24.8-9.7-37.9-6.9c-13.1,2.8-24.4,10.6-31.7,21.9c-7.3,11.3-9.7,24.8-6.9,37.9
			c2.8,13.1,10.6,24.4,21.9,31.7c6.5,4.2,13.7,9.5,20.8,15.6c6.9,5.8,13.7,12.1,20.1,18.7c2.6,2.6,5.2,5.4,8.1,8.6l1.1,1.2l-1,1.3
			c-1.9,2.4-4.1,5.2-6.3,8l-11.2,14l-11.3,13.8c-2.4,2.9-4.9,5.8-7.2,8.6c-1.4,1.6-2.8,3.3-4.2,4.9l-2.9,3.4L721.1,697L711,707.9
			c-0.4,0.5-1,1.1-1.5,1.6l-10.3,10.4c-14,14.2-14.7,36.4-1.7,51.6c13.7,16.1,37.9,18,54,4.3l11.8-10.1c0.6-0.5,1.2-1,1.8-1.6
			l12.7-11.7l13.8-13.4l3.3-3.3c1.5-1.6,3.1-3.1,4.6-4.7c2.9-2.9,5.8-5.9,8.7-8.8l13.1-13.6L825.3,704.3z"/>
		<g class="st7">
			<g>
				<defs>
					<rect id="SVGID_19_" x="131.6" y="487" width="818.9" height="329.2"/>
				</defs>
				<clipPath id="SVGID_20_">
					<use xlink:href="#SVGID_19_"  style="overflow:visible;"/>
				</clipPath>
				<path class="st8" d="M214.1,565.8c5.2,3.3,12.7,4,19.5,5.9c2.7,0.7,5.4,1.7,8,2.7c1.3,0.5,1.5,0.6,0.5,0.2
					c0.7,0.3,1.5,0.7,2.2,1c1.5,0.7,2.9,1.4,4.3,2.2c5.6,3,9.6,5.9,13.5,9.3c5.5,4.8,9.7,11.1,16.7,13.8c5.9,2.2,11.9-3.4,11.9-9.1
					c0.1-8.2-6.8-15.6-12.3-21c-5.4-5.3-11.8-10-18.4-13.7c-6.5-3.6-13.6-6.4-20.9-8.2c-8.3-2-17.4-3.4-25.1,1.1
					C207.9,553.4,208.3,562.1,214.1,565.8"/>
				<path class="st8" d="M132.8,740.8c-4.2,14,3.1,29.2,8.8,41.8c2.7,6,5.6,11.9,9.4,17.3c3.8,5.3,8.9,12.6,15.1,15.3
					c3.2,1.4,6.8,1.4,9.4-1.2c2.2-2.2,3.3-6.7,1.2-9.4c-3.5-4.6-8.3-8.1-11.7-12.9c-3.6-5-6.7-10.3-9.5-15.8
					c-2.8-5.4-5.4-11-8.1-16.5c-3.2-6.2-5.9-12-7.9-18.7C138.5,737.6,133.8,737.6,132.8,740.8"/>
				<path class="st8" d="M333.9,687.4c0,6.3,0.3,12.3,1.7,18.5c1.4,6.4,3.1,12.7,4.3,19.1c1.1,5.9,1.8,11.8,2.2,17.7
					c0.4,6.6-0.2,13.9,2.4,20c1.1,2.7,2.9,4.9,6.1,5.2c2.7,0.3,6-0.9,7.3-3.5c3.3-6.7,3-13.8,2.4-21.1c-0.5-7.3-1.6-14.6-3-21.8
					c-1.3-6.7-3-13.2-5.4-19.5c-2.6-6.9-6.5-12.3-11.8-17.3C337.9,682.7,333.9,684.2,333.9,687.4"/>
				<path class="st8" d="M511.2,553.3c-0.6,6.8-5.9,13.3-12.3,15.4c-9.6,3.1-18.9-2.9-28.5-0.3c-3.2,0.9-5.4,5.1-3.3,8.1
					c8.2,11.7,28.6,13.3,40.6,6.8c11.4-6.2,16.7-19,14.1-31.4C520.5,545.6,511.7,547.6,511.2,553.3"/>
				<path class="st8" d="M415.3,725.2c2.8-0.6,4.9-3.3,7.5-4.6c2.7-1.3,5.7-2.3,8.6-3.1c3-0.8,4,0.3,6.5,1.9
					c4.1,2.5,7.1,1.7,10.8-0.9c0.9-0.6,1.5-1.7,1.1-2.8c-0.3-1.1,0.1-2.6-0.3-3.8c-0.6-1.9-1.7-3.2-3.3-4.3c-2-1.5-4.1-2.8-6.5-3.7
					c-5.7-2.2-11.6-0.6-17,1.9c-4.6,2.1-9.6,5.1-11.5,10.1C410,719,410,726.3,415.3,725.2"/>
				<path class="st8" d="M547.9,671.2c3,12.3,8.5,24.2,8.1,37.1c-0.2,6.2-1.3,12.3-3.1,18.2c-0.9,2.9-2,5.7-3.4,8.4
					c-0.8,1.6-1.7,3-2.4,4.6c-0.8,1.7-0.6,3.5-1.3,5.2c-1.6,3.5,1.8,8,5.6,5.6c1.7-1,3.6-1.4,5.2-2.5c1.6-1.1,2.8-2.8,4.1-4.4
					c2.5-3.2,4.8-6.6,6.6-10.3c3.8-7.7,6-15.7,6.2-24.3c0.4-15.8-4.7-34.4-19.6-42.3C550.7,665,547.1,667.7,547.9,671.2"/>
				<path class="st8" d="M633.8,494.6c1.4,2.3,3.5,3.2,5.7,4.6c1.8,1.2,3.6,3,5.1,4.6c3.4,3.5,7.2,7.3,8.8,12c0.9,2.6,1.3,5.4,2,8
					c0.7,2.8,0.8,5.6,2,8.2c2.2,4.7,6.8,6.3,10.3,1.7c3.6-4.7,4-12.8,3.1-18.4c-1-6-4.1-11.2-8-15.7c-3.4-3.9-7.9-7.8-12.6-10.2
					c-4.4-2.2-12.1-4.4-15.7,0.2C633.3,491.1,632.8,492.9,633.8,494.6"/>
				<path class="st8" d="M658.6,582.2c-1.2,10.5-3.2,20.7-4.2,31.3c-0.5,5.2-0.7,10.4-0.9,15.6c-0.3,5,1,12.6,7.6,12.6
					c6.8,0,8.1-7.4,8.2-12.6c0.1-4.9,0.4-9.9,0.3-14.9c-0.2-10.8-1.4-21.3-1.8-32.1C667.6,576.1,659.3,576.4,658.6,582.2"/>
				<path class="st8" d="M764.3,519.6c12.4,15.9,34.8,22.9,43.7,41.7c1.6,3.3,6.2,4.4,9.3,3.1c3.7-1.6,4.9-5,4.3-8.8
					c-1.6-11.5-13.7-20.8-22.3-27.4c-9.4-7.2-19.9-14.4-32.2-15.3C763.3,512.5,762.5,517.2,764.3,519.6"/>
				<path class="st8" d="M921,494.9c-1.1-1,0.8,1.4,1,1.6c0.7,0.9,1.6,1.7,2.3,2.6c1.2,1.4,2.3,2.8,3.3,4.3c2.6,3.9,4.3,8.4,5.3,13
					c1,4.8,1.6,10,0.8,14.9c-0.8,5-4.7,9.1-4.4,14.2c0.2,4.7,4.1,7.3,8.5,6.5c7.2-1.3,10.6-10.7,11.8-17c1.5-7.7,0.7-15.4-1.2-22.9
					c-1.7-6.6-4.6-12.6-9.8-17.2c-2.2-2-4.6-3.7-7.3-4.9c-1.5-0.7-3.1-1.3-4.7-1.6c-1.7-0.2-2.6,0.3-4.1,0.5
					C919.9,489.4,919.1,493.3,921,494.9"/>
				<path class="st8" d="M760,687.2c3.2-4.6,6.9-8.9,10.4-13.4c1.7-2.1,3.3-4.2,5.1-6.2c2.1-2.3,4.6-4.2,6.6-6.6
					c4.8-6-1.2-15.5-8.7-11.2c-6.1,3.5-10.9,10.8-14.5,16.7c-3.7,6-7.7,12.2-6.6,19.6C752.7,690.2,758.2,689.9,760,687.2"/>
				<path class="st8" d="M877.7,652.8c0.8,6.2,1.2,12.4,2.5,18.5c1.2,6.3,2.7,12.5,4.1,18.7c1.3,6,2.6,12,3.7,18
					c1.2,6,3.1,11.5,4.9,17.4c0.9,2.7,4.5,4,6.6,1.8c4.7-5,3.7-12.1,2.8-18.3c-0.9-6.5-2.4-13.1-4-19.5c-1.6-6.4-3.2-12.9-5.4-19.1
					c-2.4-6.7-5.5-12.8-8.9-19.1C882.5,648.3,877.3,649.4,877.7,652.8"/>
			</g>
		</g>
		<g class="st9">
			<g>
				<defs>
					<rect id="SVGID_21_" x="124.3" y="476.6" width="831.8" height="365"/>
				</defs>
				<clipPath id="SVGID_22_">
					<use xlink:href="#SVGID_21_"  style="overflow:visible;"/>
				</clipPath>
				<path class="st10" d="M288,616.4c4.3,3.4,9.4,7.8,15.1,8c4.9,0.2,9-2.9,10.7-7.5c4-10.6-6.1-21.9-12.6-29.2
					c-8.2-9.2-17.8-17-27.4-24.6c-4.8-3.9-9.8-7.6-15.5-10.1c-5.6-2.5-11.5-3.6-17.5-4.4c-14.1-1.7-28.8-2.8-42.7,0.8
					c-12,3-25.1,8.5-32.6,18.8c-1.5,0.7-2.8,1.9-3.3,4.1c-1.1,4.3,5.3,6.2,6.7,2.1c0,0,0.1,0,0.1-0.1c0.4-0.2,1-0.2,1.4-0.2
					c1.2-0.1,2.3-0.1,3.5-0.3c2.9-0.5,5.5-2,8.3-2.6c6.2-1.4,12.3,2,17.2,5.4c4.6,3.2,8.4,7.7,13.4,10.2c5.2,2.6,10.3,1.9,15.4-0.4
					c5.6-2.5,10-5.7,16.4-3.8c6.1,1.8,11.3,6.2,16.1,10.1C270.1,600.4,278.5,609,288,616.4"/>
				<path class="st10" d="M460.2,514.5c5.1-1,11.5-0.5,15.8-3.9c3.9-3.1,3.7-8.4,0.4-11.9c-4-4.3-10.3-6.8-15.7-8.6
					c-6-2-12.5-3-18.8-3.2c-13.8-0.4-27.3,3.4-40,8.7c-11.7,4.9-23,11-32.2,20c-21,20.6-28.3,50.8-19.7,78.8c0,0.1,0.1,0.2,0.1,0.3
					c0.2,3,4.9,4.1,5.7,0.7c2.8-12,6.5-27.2,19.3-32.4c5.2-2.1,11.1-0.3,16.5-1c5.9-0.7,10.9-3.9,12.9-9.8
					c1.9-5.6,0.6-11.7,2.4-17.4c1.8-5.9,6.2-9.4,11.9-11.2C432,519.1,446.4,517.2,460.2,514.5"/>
				<path class="st10" d="M541,755.9c-2.4-0.3-4.7,0.5-6.9,1.3c-3.4,1.3-6.8,2.5-10.4,3.5c-10.1,2.8-23.9,5.4-32.9-1.8
					c-4.7-3.8-7.2-9.6-12.3-13c-5.5-3.6-10.7-2.8-16.3-0.1c-11.9,5.8-26.2,0.1-30.4-12.6c-1.4-4.4-2-11.1-8.1-11.3
					c-2.9-0.1-5.2,1.4-6.9,3.4c-0.7-0.8-2.1-1-2.9,0.2c-5.9,9.7,0,21.2,6.1,29.2c7.3,9.6,17.2,16,28.4,20.3
					c24.1,9.4,50.7,16.9,76.5,9.9c9.1-2.5,21.6-8.6,23.2-19.1C549.2,760.9,546.2,756.5,541,755.9"/>
				<path class="st10" d="M667.4,710.9c0.2-3.4-4.9-4.7-6.5-1.8c-2.8,5.3-4.3,11.1-5.5,16.9c-0.2,0.8-0.7,4.7-1.7,4.8
					c-1.3,0.2-3.1-5.5-3.4-6.3c-2.2-5.6-4.2-11.3-5.1-17.3c-0.7-4.7-2.1-8.8-6.7-10.9c-9.6-4.3-18,4.6-19.2,13.7
					c-0.8,5.9,0.5,12.1,1.7,17.9c1.2,5.8,2.6,11.7,5,17.1c3.6,8.1,12.1,16,21,14.2c8.8,0.1,17.3-5.7,19.2-14.4
					C668.6,733.9,666.7,722,667.4,710.9"/>
				<path class="st10" d="M654.8,483.8c-15.9-9.6-37.1-8.4-51.8,3c-8.1,6.3-13.1,14.8-15.9,24.6c-2.4,8.4-4.5,17.6-2.9,26.3
					c-0.2,7,2.2,14.7,4.5,20.8c1.1,2.9,6.1,2.9,5.9-0.8c-0.2-4.2-1.2-11.8,3.1-14.6c1.5-1,3.3-0.5,5-0.4c2.6,0.2,5.1,0.4,7.5-1
					c7.7-4.4,6-13.1,7.2-20.4c0.7-4.2,3.9-4.3,7.4-2.7c4.5,2.1,8.4,5.3,13,7.4c7.7,3.5,17.8,6.2,25.5,1.2c7.6-4.9,9.2-15.4,7.1-23.7
					C668.3,495.1,662.2,488.3,654.8,483.8"/>
				<path class="st10" d="M743.6,585.3c2.7,1.8,5.8-2.3,3.5-4.5c-4.5-4.3-9.4-9.8-8.7-16.5c0.7-6.9,7.5-9.3,13.3-10.9
					c10.9-2.9,23.6-2.7,32.5-10.6c8.5-7.5,3.5-19.7-6.7-22.4c-6.1-1.6-12.5,0.4-18.2,2.7c-2.9,1.2-5.8,2.4-8.8,3.6
					c-2.9,1.2-6.5,3.4-9.6,3.3c-5.1-0.1,1.7-5.1,3.1-6.3c2.8-2.2,5.7-4.3,8.7-6.1c6.4-3.8,13.2-6.6,20.3-8.6
					c1.2-0.3,2.2-1.6,2.2-2.8c-0.1-2.5-1.7-4.2-4.2-4.1c-1.2,0-2,0.6-2.4,1.4c-0.2-0.1-0.5-0.2-0.9-0.2c-11.7-0.9-23.8,0-34.3,5.7
					c-8.6,4.7-15.8,13-17.7,22.8c-1.9,10.4,1.8,21.7,6.7,30.8C727.3,571.8,734.7,579.5,743.6,585.3"/>
				<path class="st10" d="M955.5,508.7c-3.7-21.6-27-37.3-48.2-30.4c-10.2,3.3-19.2,10.7-23.4,20.6c-2,1.6-2.9,4.7-1.9,7.2
					c2,5.4,7.9,3.7,12.2,4.5c4.8,0.9,8.9,4.7,10,9.4c1.2,5,3.1,7.8,8.8,7c5.3-0.8,10.2-3.6,13.7-7.6c0.2-0.3,0.6-0.6,1-1
					c0,0.2,0,0.5,0.1,0.7c0.2,3.3,0,6.7-0.4,10c-0.8,6.4-2.6,12.7-5.2,18.7c-2.4,5.5-5.4,10.9-6.5,16.9c-0.5,2.9,1.8,6.1,5,5
					c10.9-3.6,20.4-11.9,26.2-21.7C953.5,537,957.7,521.5,955.5,508.7"/>
				<path class="st10" d="M802.9,696c-4.8,4.5-9.7,8.9-14.7,13.3c-4.7,4.2-9.8,8.6-16.1,10.4c-2.8,0.8-5.9,1.1-8.8,0.4
					c-3.3-0.8-6.1-2.8-9.2-3.8c-4.4-1.4-9.5-0.9-12.7,2.6c-3.4,3.8-2.7,9.9-7.7,12.3c-1.1,0.5-2.2,0.8-3.4,0.8
					c-2.1,0.1-2.3-0.1-2.5-2c-0.3-2.3-0.6-4.7-1.4-6.9c-1.5-4.1-4.5-7.5-9.1-7.8c-3-0.2-5.7,1-7.1,3.3c-9.3,6.4-10.5,18.7-8.6,29
					c2.1,11.4,9.9,20.9,21.9,22.2c12.2,1.4,23.1-5.5,31.2-14.1c4.4-4.7,7.8-10.4,12.8-14.5c4.8-3.9,10-7.2,14.8-11.1
					c10.8-8.6,20.5-18.1,25.8-31.1C809.6,695.9,805.1,694,802.9,696"/>
				<path class="st10" d="M907.2,726.1c-4.1-1.8-8.3,0.4-10.3,4.1c-1.9,3.5-2.5,8-3.1,11.9c-0.3,1.9-1.3,10.8-4.6,8.5
					c-1.2-0.8-1.4-3.3-1.8-4.5c-0.7-2.2-1.4-4.5-2.7-6.4c-2.6-3.8-6.6-5.2-11.1-5.4c-4.5-0.2-7.9,0.2-12.1-2.2
					c-4.1-2.3-7-6.1-10.4-9.3c-0.9-0.8-2.1-0.9-3-0.5c-1.7-2.4-3.7-4.6-6.1-6.4c-1.8-1.4-4,1.6-2.4,3.1c6.5,6,7.9,15.5,10,23.6
					c2.5,9.7,4.4,20.1,8.3,29.3c7.3,17,29.1,17.2,43.3,9.2c15.9-9,18.2-30.3,12.1-46.1C912,731.8,910.7,727.6,907.2,726.1"/>
				<path class="st10" d="M204.2,799.6c-3.7,0.2-6.2,2.8-8.9,5c-0.5,0.4-1.7,1.8-2.5,1.5c-1-0.4-1.8-3.1-2.4-4
					c-2.4-3.9-6-5.9-10.5-6.7c-5.6-0.9-10.5-1.3-15.6-4.1c-5.1-2.8-9.5-6.4-13.7-10.4c-9.1-8.4-16.4-18.2-22-29.2
					c-1.4-2.8-5.4-0.3-4.1,2.4c0.7,1.5,1.4,3,2.2,4.5c1.8,9.5,5.5,18.2,9.8,26.9c4.7,9.3,9.7,18.6,16,26.9
					c11.6,15.4,28.6,28.5,48.5,29.2c9.7,0.3,17.2-3.1,18.6-13.4c1.1-8.2-0.3-17.6-6-23.9C211.3,801.6,208,799.4,204.2,799.6"/>
				<path class="st10" d="M369.6,767.5c0-3.8,0.2-7.7-0.9-11.4c-1.1-3.8-3.7-6.7-5.5-10.2c-1.5-3.1-2.4-6.4-3.3-9.7
					c-1.8-6.6-3.5-13-8.6-17.8c-1.3-1.3-4-0.9-4.4,1.2c-2.1,11.7,5.8,22.3,5.7,34c0,11.7-6.9,20.9-18.3,23.8c-1.7,0.4-5.4,1.9-6.9,1
					c-1.3-0.8-2.5-7-2.9-8.4c-1.8-6.3-2.8-12.6-3.7-19.1c-0.5-3.9-2.5-8-7-8.1c-1.2,0-2.3,0.2-3.2,0.7c-1.7-2.8-3.8-5.4-6.8-7.1
					c-4.5-2.5-10-2.4-14.9-1.4c-11.1,2.1-22.1,8.2-30.7,15.4c-1.9,1.6,0.3,4.5,2.4,3.8c0.2,0.1,0.4,0.2,0.7,0.1
					c6.6-2.4,13.5-4.3,20.4-5.5c6.8-1.3,13-1.3,19.7-1c0.3,14.1-1.6,29.2,3.3,42.6c2,5.5,5,10.8,9.5,14.7c4.9,4.4,10.7,6.2,17,7.7
					c6.9,1.7,13.7,2.5,20.2-1c5.8-3.1,9.9-8.3,13.8-13.5c4.7-6.2,7-12.5,5.7-20.4C370.4,774.3,369.6,771.1,369.6,767.5"/>
			</g>
		</g>
		<path class="st6" d="M761.5,439.4l-5.9,8l-1.7,4l-0.1,0.4c-0.2-3.4-1.2-6.8-3.2-10c-8.7-14.2-68.7-105.5-97.1-139.8
			c-11.1-13.5-23-17.2-33.7-16.3c-10.7-0.3-22.3,4.1-32.7,18.2c-23.1,31.4-66.6,93.6-82.7,122c-1.5,2.7-3.7,7.8-4.9,10.2
			c-3.8,6.8-6.2,14.3-3.9,27.3l0.1,0c2.3,13.7,16.3,26.1,29.2,30.2c15.7,5,39.3,1.4,53.9-29.5c15.4-32.7,32.1-66.6,35.8-73.4
			c1.6-3,4.6-4.5,7.9-4.5c0,0,0.1,0,0.1,0c0,0,0.1,0,0.1,0v0c3.3-0.2,6.3,1.1,8.1,4.1c4.1,6.6,22.7,39.4,39.9,71.2
			c16.3,30,40.1,32.3,55.5,26.4c10.7-4.1,23.1-13.7,27.2-25C754.6,459.7,761.1,443.3,761.5,439.4"/>
		<path class="st6" d="M631.2,264.9c9.7,0,20.1,4.1,30,16.1c27.8,33.6,86.5,122.8,94.9,136.7c10.6,17.4-7.1,38.6-23.7,45
			c-4.1,1.6-8.8,2.5-13.8,2.5c-13.4,0-28.8-7-40.5-28.4c-16.9-31.1-35.1-63.2-39-69.6c-1.7-2.7-4.3-4-7.3-4c-0.2,0-0.4,0-0.7,0
			c0,0,0,0,0,0c0,0-0.1,0-0.1,0c0,0,0,0,0,0c0,0-0.1,0-0.1,0c0,0-0.1,0-0.1,0c-3.2,0-6,1.5-7.6,4.4c-3.6,6.7-19.9,39.7-35,71.7
			c-10.9,23.2-27.1,30.7-41,30.7c-4.2,0-8.2-0.7-11.7-1.8c-17-5.4-35.9-25.5-26.3-43.5c7.7-14.3,61.2-106.7,87-141.9
			c9.8-13.4,20.8-17.8,31-17.8c0.3,0,0.6,0,0.9,0C629.2,265,630.2,264.9,631.2,264.9 M631.2,260.9c-1,0-2,0-3,0.1
			c-0.3,0-0.5,0-0.8,0c-13.2,0-24.7,6.5-34.2,19.5c-26.5,36-80.1,128.9-87.3,142.3c-3.8,7.1-4.1,15-0.9,23
			c4.6,11.4,16.7,22.2,29.4,26.3c4.2,1.3,8.5,2,12.9,2c10.8,0,31-4.3,44.6-33c14.6-30.9,31.2-64.7,34.9-71.6
			c0.8-1.5,2.2-2.3,4.1-2.3h0.1c0,0,0,0,0,0c0,0,0.1,0,0.1,0c0,0,0.1,0,0.1,0c0,0,0.1,0,0.1,0c0.1,0,0.1,0,0.2,0c0.1,0,0.3,0,0.4,0
			c1.7,0,3,0.7,3.9,2.1c4.1,6.6,22.7,39.5,38.9,69.5c14.4,26.5,33.7,30.5,44,30.5c5.1,0,10.4-1,15.2-2.8
			c12.4-4.8,23.9-16.2,27.9-27.9c2.8-8.1,2-16-2.2-22.9c-8-13.1-66.8-102.7-95.3-137.2C654.7,266.8,643.5,260.9,631.2,260.9"/>
	</g>
	<g class="st0">
		<defs>
			<path id="SVGID_23_" d="M628.3,265.1c-10.5-0.3-21.8,4.1-31.9,17.8c-25.8,35.1-79.4,127.5-87,141.9c-9.6,18,9.3,38.1,26.3,43.5
				c15.3,4.9,38.4,1.3,52.7-28.9c15.1-32,31.4-65.1,35-71.7c1.6-3,4.5-4.4,7.7-4.4c0,0,0.1,0,0.1,0c0,0,0,0,0.1,0c0,0,0,0,0.1,0
				c3.2-0.2,6.2,1.1,7.9,4c4,6.5,22.1,38.5,39,69.6c15.9,29.4,39.2,31.6,54.2,25.8c16.7-6.4,34.4-27.5,23.7-45
				c-8.5-13.9-67.2-103.1-94.9-136.7c-9.9-12-20.4-16.1-30-16.1C630.2,264.9,629.2,265,628.3,265.1"/>
		</defs>
		<clipPath id="SVGID_24_">
			<use xlink:href="#SVGID_23_"  style="overflow:visible;"/>
		</clipPath>
		
			<linearGradient id="SVGID_25_" gradientUnits="userSpaceOnUse" x1="0" y1="1080.0781" x2="1" y2="1080.0781" gradientTransform="matrix(116.1003 285.0593 285.0593 -116.1003 -307298.625 125654.5234)">
			<stop  offset="0" style="stop-color:#8CC740"/>
			<stop  offset="1" style="stop-color:#29ADDC"/>
		</linearGradient>
		<polygon class="st11" points="728.8,171.5 839.5,443.5 537.7,566.4 426.9,294.4 		"/>
	</g>
	<g class="st0">
		<defs>
			<rect id="SVGID_26_" width="1080" height="1080"/>
		</defs>
		<clipPath id="SVGID_27_">
			<use xlink:href="#SVGID_26_"  style="overflow:visible;"/>
		</clipPath>
		<g class="st12">
			<g>
				<defs>
					<rect id="SVGID_28_" x="669.6" y="400.3" width="81" height="59.2"/>
				</defs>
				<clipPath id="SVGID_29_">
					<use xlink:href="#SVGID_28_"  style="overflow:visible;"/>
				</clipPath>
				<path class="st13" d="M670.6,409.3c5.2,12,18.1,35.9,26.7,43.2c9.7,8.2,25.5,8.8,36.5,4.3c10.9-4.6,16.7-14.9,16.7-18.8
					c0-4,0.9-6.1-2.7-7.6c-3.6-1.5-3.6-0.9-11.2,0.6c-7.6,1.5-12.5-1.5-12.5-1.5s-15.5-14.6-20.7-6.1c-5.2,8.5-10.9,3.6-18.8-12.5
					C676.7,394.7,666.3,399.5,670.6,409.3"/>
			</g>
		</g>
		<g class="st12">
			<g>
				<defs>
					<rect id="SVGID_30_" x="512" y="396" width="45" height="68.9"/>
				</defs>
				<clipPath id="SVGID_31_">
					<use xlink:href="#SVGID_30_"  style="overflow:visible;"/>
				</clipPath>
				<path class="st14" d="M527.2,401c-10,14.2-17.8,25.7-14.5,39.5c3.3,13.8,15.6,19.9,19.9,21.4c4.4,1.5,14.9,4,21.4,2.5
					c5.9-3,1.8-6.2-4-7.3s-11.2-0.7-14.9-5.1c-3.6-4.4,0.4-7.6-0.7-13.8c-1.1-6.2-6.2-4.5-5.4-9.4c0.8-4.8-4.7-2,0.3-12
					C534.3,407.2,537.4,386.5,527.2,401"/>
			</g>
		</g>
		<g class="st12">
			<g>
				<defs>
					<rect id="SVGID_32_" x="577.6" y="267.9" width="71.4" height="62.9"/>
				</defs>
				<clipPath id="SVGID_33_">
					<use xlink:href="#SVGID_32_"  style="overflow:visible;"/>
				</clipPath>
				<path class="st15" d="M579.9,315.3c7.8-13.2,20-32.4,24.2-36.6c4.2-4.2,12.6-11.1,25.5-10.8c12.9,0.3,17.7,3.6,18.9,4.8
					c1.2,1.2,1.4,6.5-5.2,5.6c-6.6-0.9-6.6-3.5-11.7,2.2c-5.1,5.7-1.8,6.4-9.9,9.7c-8,3.3-13.2-3.2-17.7,1.6
					c-4.5,4.8-6.6,15.4-17.7,32.5C575.2,341.3,576.9,320.1,579.9,315.3"/>
			</g>
		</g>
		<g class="st16">
			<g>
				<defs>
					<rect id="SVGID_34_" x="655.4" y="297.7" width="49" height="64.5"/>
				</defs>
				<clipPath id="SVGID_35_">
					<use xlink:href="#SVGID_34_"  style="overflow:visible;"/>
				</clipPath>
				<path class="st17" d="M655.4,300.2c-0.3,5,4.4,10.1,7.1,14c4,5.6,8,11.1,11.9,16.8c3.8,5.5,7.4,11.1,11.2,16.6
					c3.4,5,7.4,13.4,13.9,14.6c2,0.4,3.9-0.5,4.5-2.6c2-6.4-3.4-13.7-6.5-19c-3.5-6-7.5-11.7-11.6-17.3c-4.4-5.8-8.8-11.3-14.1-16.3
					c-3.4-3.3-8.3-8.4-13.2-9.2C656.9,297.5,655.5,298.4,655.4,300.2"/>
			</g>
		</g>
		<g class="st16">
			<g>
				<defs>
					<rect id="SVGID_36_" x="583.9" y="374.9" width="26.1" height="45.2"/>
				</defs>
				<clipPath id="SVGID_37_">
					<use xlink:href="#SVGID_36_"  style="overflow:visible;"/>
				</clipPath>
				<path class="st18" d="M606.3,375.3c-6.6,4.5-10,13.8-13.7,20.6c-2,3.7-4.3,7.4-5.6,11.4c-0.7,2.2-1.6,4.2-2.5,6.4
					c-0.7,1.6-1,3.1-0.3,4.8c0.5,1.3,1.5,1.8,2.8,1.6c3.8-0.6,5.6-5.5,7.9-8.1c2.7-3.3,4.5-7.1,6.4-10.9c1.9-3.8,3.8-7.6,5.5-11.5
					c1.6-3.9,3.4-7.8,3-12.1C609.8,375.7,607.9,374.2,606.3,375.3"/>
			</g>
		</g>
	</g>
</g>
</svg>
